0
SECTION
2
HEADER
9
$INSUNITS
70
4
9
$ACADVER
1
AC1014
9
$HANDSEED
5
FFFF
0
ENDSEC
0
SECTION
2
TABLES
0
TABLE
2
VPORT
5
8
100
AcDbSymbolTable
0
ENDTAB
0
TABLE
2
LTYPE
5
5
100
AcDbSymbolTable
0
LTYPE
5
14
100
AcDbSymbolTableRecord
100
AcDbLinetypeTableRecord
2
BYBLOCK
70
0
0
LTYPE
5
15
100
AcDbSymbolTableRecord
100
AcDbLinetypeTableRecord
2
BYLAYER
70
0
0
ENDTAB
0
TABLE
2
LAYER
5
2
100
AcDbSymbolTable
70
2
0
LAYER
5
50
100
AcDbSymbolTableRecord
100
AcDbLayerTableRecord
2
0
70
0
6
CONTINUOUS
0
ENDTAB
0
TABLE
2
STYLE
5
3
100
AcDbSymbolTable
70
1
0
STYLE
5
11
100
AcDbSymbolTableRecord
100
AcDbTextStyleTableRecord
2
STANDARD
70
0
0
ENDTAB
0
TABLE
2
VIEW
5
6
100
AcDbSymbolTable
70
0
0
ENDTAB
0
TABLE
2
UCS
5
7
100
AcDbSymbolTable
70
0
0
ENDTAB
0
TABLE
2
APPID
5
9
100
AcDbSymbolTable
70
2
0
APPID
5
12
100
AcDbSymbolTableRecord
100
AcDbRegAppTableRecord
2
ACAD
70
0
0
ENDTAB
0
TABLE
2
DIMSTYLE
5
A
100
AcDbSymbolTable
70
1
0
ENDTAB
0
TABLE
2
BLOCK_RECORD
5
1
100
AcDbSymbolTable
70
1
0
BLOCK_RECORD
5
1F
100
AcDbSymbolTableRecord
100
AcDbBlockTableRecord
2
*MODEL_SPACE
0
BLOCK_RECORD
5
1B
100
AcDbSymbolTableRecord
100
AcDbBlockTableRecord
2
*PAPER_SPACE
0
ENDTAB
0
ENDSEC
0
SECTION
2
BLOCKS
0
BLOCK
5
20
100
AcDbEntity
100
AcDbBlockBegin
2
*MODEL_SPACE
0
ENDBLK
5
21
100
AcDbEntity
100
AcDbBlockEnd
0
BLOCK
5
1C
100
AcDbEntity
100
AcDbBlockBegin
2
*PAPER_SPACE
0
ENDBLK
5
1D
100
AcDbEntity
100
AcDbBlockEnd
0
ENDSEC
0
SECTION
2
ENTITIES
0
LWPOLYLINE
5
100
100
AcDbEntity
8
0
100
AcDbPolyline
90
4
70
1
43
0.0
10
-14.666016182011834
20
-10.970164564935558
10
27.912244046421645
20
-10.970164564935594
10
27.912244046421652
20
1.7078737941168987
10
-14.666016182011823
20
1.7078737941169337
0
SPLINE
5
101
100
AcDbEntity
8
0
100
AcDbSpline
70
0
71
2
72
6
73
3
74
0
42
0.000000001
43
0.0000000001
44
0.0000000001
40
0
40
0
40
0
40
1
40
1
40
1
10
-13.044450111768111
20
-0.49061521621708237
30
0
10
-13.027966596267088
20
-0.38347258897785508
30
0
10
-13.067114926955565
20
-0.30929669471744858
30
0
0
SPLINE
5
102
100
AcDbEntity
8
0
100
AcDbSpline
70
0
71
2
72
6
73
3
74
0
42
0.000000001
43
0.0000000001
44
0.0000000001
40
0
40
0
40
0
40
1
40
1
40
1
10
-13.067114926955565
20
-0.30929669471744858
30
0
10
-13.106263406655653
20
-0.23512080045704153
30
0
10
-13.176318235776289
20
-0.18463983865741995
30
0
0
SPLINE
5
103
100
AcDbEntity
8
0
100
AcDbSpline
70
0
71
2
72
6
73
3
74
0
42
0.000000001
43
0.0000000001
44
0.0000000001
40
0
40
0
40
0
40
1
40
1
40
1
10
-13.176318235776289
20
-0.18463983865741995
30
0
10
-13.246373213908537
20
-0.13415917488102225
30
0
10
-13.336002357385023
20
-0.099131611309092316
30
0
0
SPLINE
5
104
100
AcDbEntity
8
0
100
AcDbSpline
70
0
71
2
72
6
73
3
74
0
42
0.000000001
43
0.0000000001
44
0.0000000001
40
0
40
0
40
0
40
1
40
1
40
1
10
-13.336002357385023
20
-0.099131611309092316
30
0
10
-13.42563150086151
20
-0.064104345760386261
30
0
10
-13.508049003860815
20
-0.03319754930500296
30
0
0
SPLINE
5
105
100
AcDbEntity
8
0
100
AcDbSpline
70
0
71
2
72
6
73
3
74
0
42
0.000000001
43
0.0000000001
44
0.0000000001
40
0
40
0
40
0
40
1
40
1
40
1
10
-13.508049003860815
20
-0.03319754930500296
30
0
10
-13.615191929123267
20
0.0059507813834736023
30
0
10
-13.721304513594969
20
0.053340646305043427
30
0
0
SPLINE
5
106
100
AcDbEntity
8
0
100
AcDbSpline
70
0
71
2
72
6
73
3
74
0
42
0.000000001
43
0.0000000001
44
0.0000000001
40
0
40
0
40
0
40
1
40
1
40
1
10
-13.721304513594969
20
0.053340646305043427
30
0
10
-13.827417172572478
20
0.10073110727306156
30
0
10
-13.925288073799475
20
0.16048357156749515
30
0
0
SPLINE
5
107
100
AcDbEntity
8
0
100
AcDbSpline
70
0
71
2
72
6
73
3
74
0
42
0.000000001
43
0.0000000001
44
0.0000000001
40
0
40
0
40
0
40
1
40
1
40
1
10
-13.925288073799475
20
0.16048357156749515
30
0
10
-14.023158975026472
20
0.22023648289676456
30
0
10
-14.106606818816527
20
0.29338211087222843
30
0
0
SPLINE
5
108
100
AcDbEntity
8
0
100
AcDbSpline
70
0
71
2
72
6
73
3
74
0
42
0.000000001
43
0.0000000001
44
0.0000000001
40
0
40
0
40
0
40
1
40
1
40
1
10
-14.106606818816527
20
0.29338211087222843
30
0
10
-14.190054625353678
20
0.3665277388476923
30
0
10
-14.249807350418433
20
0.45615688232417878
30
0
0
SPLINE
5
109
100
AcDbEntity
8
0
100
AcDbSpline
70
0
71
2
72
6
73
3
74
0
42
0.000000001
43
0.0000000001
44
0.0000000001
40
0
40
0
40
0
40
1
40
1
40
1
10
-14.249807350418433
20
0.45615688232417878
30
0
10
-14.30956011273609
20
0.54578602580066504
30
0
10
-14.341496951958998
20
0.65498933462138953
30
0
0
SPLINE
5
110
100
AcDbEntity
8
0
100
AcDbSpline
70
0
71
2
72
6
73
3
74
0
42
0.000000001
43
0.0000000001
44
0.0000000001
40
0
40
0
40
0
40
1
40
1
40
1
10
-14.341496951958998
20
0.65498933462138953
30
0
10
-14.373433753929003
20
0.76419249443050208
30
0
10
-14.365191996178492
20
0.89400023488040747
30
0
0
SPLINE
5
111
100
AcDbEntity
8
0
100
AcDbSpline
70
0
71
2
72
6
73
3
74
0
42
0.000000001
43
0.0000000001
44
0.0000000001
40
0
40
0
40
0
40
1
40
1
40
1
10
-14.365191996178492
20
0.89400023488040747
30
0
10
-14.356950238427981
20
1.0423518743896085
30
0
10
-14.304409004828793
20
1.1639179315948087
30
0
0
SPLINE
5
112
100
AcDbEntity
8
0
100
AcDbSpline
70
0
71
2
72
6
73
3
74
0
42
0.000000001
43
0.0000000001
44
0.0000000001
40
0
40
0
40
0
40
1
40
1
40
1
10
-14.304409004828793
20
1.1639179315948087
30
0
10
-14.25186780848251
20
1.285483690776785
30
0
10
-14.166359543881279
20
1.3812942829513148
30
0
0
SPLINE
5
113
100
AcDbEntity
8
0
100
AcDbSpline
70
0
71
2
72
6
73
3
74
0
42
0.000000001
43
0.0000000001
44
0.0000000001
40
0
40
0
40
0
40
1
40
1
40
1
10
-14.166359543881279
20
1.3812942829513148
30
0
10
-14.080851279280049
20
1.477104577102621
30
0
10
-13.968557320616108
20
1.5481899705314235
30
0
0
SPLINE
5
114
100
AcDbEntity
8
0
100
AcDbSpline
70
0
71
2
72
6
73
3
74
0
42
0.000000001
43
0.0000000001
44
0.0000000001
40
0
40
0
40
0
40
1
40
1
40
1
10
-13.968557320616108
20
1.5481899705314235
30
0
10
-13.856263361952168
20
1.6192750659370021
30
0
10
-13.729546271345479
20
1.6646046963119101
30
0
0
SPLINE
5
115
100
AcDbEntity
8
0
100
AcDbSpline
70
0
71
2
72
6
73
3
74
0
42
0.000000001
43
0.0000000001
44
0.0000000001
40
0
40
0
40
0
40
1
40
1
40
1
10
-13.729546271345479
20
1.6646046963119101
30
0
10
-13.602829255244595
20
1.7099343266868183
30
0
10
-13.4678704813932
20
1.7305387583159992
30
0
0
SPLINE
5
116
100
AcDbEntity
8
0
100
AcDbSpline
70
0
71
2
72
6
73
3
74
0
42
0.000000001
43
0.0000000001
44
0.0000000001
40
0
40
0
40
0
40
1
40
1
40
1
10
-13.4678704813932
20
1.7305387583159992
30
0
10
-13.332911707541806
20
1.7511431899451801
30
0
10
-13.201043583533627
20
1.7490826573752949
30
0
0
SPLINE
5
117
100
AcDbEntity
8
0
100
AcDbSpline
70
0
71
2
72
6
73
3
74
0
42
0.000000001
43
0.0000000001
44
0.0000000001
40
0
40
0
40
0
40
1
40
1
40
1
10
-13.201043583533627
20
1.7490826573752949
30
0
10
-12.990878798148495
20
1.7449618902587476
30
0
10
-12.811620511195523
20
1.6810883608245435
30
0
0
SPLINE
5
118
100
AcDbEntity
8
0
100
AcDbSpline
70
0
71
2
72
6
73
3
74
0
42
0.000000001
43
0.0000000001
44
0.0000000001
40
0
40
0
40
0
40
1
40
1
40
1
10
-12.811620511195523
20
1.6810883608245435
30
0
10
-12.63236222424255
20
1.6172145333671155
30
0
10
-12.500494100234372
20
1.4977090087318006
30
0
0
SPLINE
5
119
100
AcDbEntity
8
0
100
AcDbSpline
70
0
71
2
72
6
73
3
74
0
42
0.000000001
43
0.0000000001
44
0.0000000001
40
0
40
0
40
0
40
1
40
1
40
1
10
-12.500494100234372
20
1.4977090087318006
30
0
10
-12.368625976226193
20
1.3782034840964854
30
0
10
-12.295480348250729
20
1.2071870293998301
30
0
0
SPLINE
5
120
100
AcDbEntity
8
0
100
AcDbSpline
70
0
71
2
72
6
73
3
74
0
42
0.000000001
43
0.0000000001
44
0.0000000001
40
0
40
0
40
0
40
1
40
1
40
1
10
-12.295480348250729
20
1.2071870293998301
30
0
10
-12.222334571263653
20
1.0361705747031746
30
0
10
-12.224395103833539
20
0.81982448963161092
30
0
0
LINE
5
121
100
AcDbEntity
8
0
100
AcDbLine
10
-12.224395103833539
20
0.81982448963161092
30
0
11
-12.82604349412666
21
0.82188487318988479
31
0
0
SPLINE
5
122
100
AcDbEntity
8
0
100
AcDbSpline
70
0
71
2
72
6
73
3
74
0
42
0.000000001
43
0.0000000001
44
0.0000000001
40
0
40
0
40
0
40
1
40
1
40
1
10
-12.826043494126662
20
0.82188487318988479
30
0
10
-12.819862194440228
20
1.0258683588885846
30
0
10
-12.921853937289578
20
1.1381623175525255
30
0
0
SPLINE
5
123
100
AcDbEntity
8
0
100
AcDbSpline
70
0
71
2
72
6
73
3
74
0
42
0.000000001
43
0.0000000001
44
0.0000000001
40
0
40
0
40
0
40
1
40
1
40
1
10
-12.921853937289578
20
1.1381623175525255
30
0
10
-13.02384582915054
20
1.2504564252280779
30
0
10
-13.234010614535672
20
1.2545771923446245
30
0
0
SPLINE
5
124
100
AcDbEntity
8
0
100
AcDbSpline
70
0
71
2
72
6
73
3
74
0
42
0.000000001
43
0.0000000001
44
0.0000000001
40
0
40
0
40
0
40
1
40
1
40
1
10
-13.234010614535672
20
1.2545771923446245
30
0
10
-13.320549108168942
20
1.25663772491451
30
0
10
-13.409147985360486
20
1.2360332932853291
30
0
0
SPLINE
5
125
100
AcDbEntity
8
0
100
AcDbSpline
70
0
71
2
72
6
73
3
74
0
42
0.000000001
43
0.0000000001
44
0.0000000001
40
0
40
0
40
0
40
1
40
1
40
1
10
-13.409147985360486
20
1.2360332932853291
30
0
10
-13.497746862552029
20
1.2154288616561482
30
0
10
-13.57192268230663
20
1.1711294975661823
30
0
0
SPLINE
5
126
100
AcDbEntity
8
0
100
AcDbSpline
70
0
71
2
72
6
73
3
74
0
42
0.000000001
43
0.0000000001
44
0.0000000001
40
0
40
0
40
0
40
1
40
1
40
1
10
-13.57192268230663
20
1.1711294975661823
30
0
10
-13.64609850206123
20
1.1268299844646048
30
0
10
-13.698639698407513
20
1.0578052726172995
30
0
0
SPLINE
5
127
100
AcDbEntity
8
0
100
AcDbSpline
70
0
71
2
72
6
73
3
74
0
42
0.000000001
43
0.0000000001
44
0.0000000001
40
0
40
0
40
0
40
1
40
1
40
1
10
-13.698639698407513
20
1.0578052726172995
30
0
10
-13.751180894753798
20
0.98878056076999421
30
0
10
-13.765604026696547
20
0.89400023488040681
30
0
0
SPLINE
5
128
100
AcDbEntity
8
0
100
AcDbSpline
70
0
71
2
72
6
73
3
74
0
42
0.000000001
43
0.0000000001
44
0.0000000001
40
0
40
0
40
0
40
1
40
1
40
1
10
-13.765604026696547
20
0.89400023488040681
30
0
10
-13.78002708413349
20
0.79715967444415803
30
0
10
-13.733667187473639
20
0.72813481358524079
30
0
0
SPLINE
5
129
100
AcDbEntity
8
0
100
AcDbSpline
70
0
71
2
72
6
73
3
74
0
42
0.000000001
43
0.0000000001
44
0.0000000001
40
0
40
0
40
0
40
1
40
1
40
1
10
-13.733667187473639
20
0.72813481358524079
30
0
10
-13.687307290813788
20
0.65911010173793549
30
0
10
-13.611071012995108
20
0.6106898215198111
30
0
0
SPLINE
5
130
100
AcDbEntity
8
0
100
AcDbSpline
70
0
71
2
72
6
73
3
74
0
42
0.000000001
43
0.0000000001
44
0.0000000001
40
0
40
0
40
0
40
1
40
1
40
1
10
-13.611071012995108
20
0.6106898215198111
30
0
10
-13.534834735176428
20
0.56226954130168649
30
0
10
-13.446235932490691
20
0.5303326275729725
30
0
0
SPLINE
5
131
100
AcDbEntity
8
0
100
AcDbSpline
70
0
71
2
72
6
73
3
74
0
42
0.000000001
43
0.0000000001
44
0.0000000001
40
0
40
0
40
0
40
1
40
1
40
1
10
-13.446235932490691
20
0.5303326275729725
30
0
10
-13.357637055299147
20
0.49839586285587045
30
0
10
-13.287582077166899
20
0.47367051509853098
30
0
0
SPLINE
5
132
100
AcDbEntity
8
0
100
AcDbSpline
70
0
71
2
72
6
73
3
74
0
42
0.000000001
43
0.0000000001
44
0.0000000001
40
0
40
0
40
0
40
1
40
1
40
1
10
-13.287582077166899
20
0.47367051509853098
30
0
10
-13.118626006028517
20
0.41391775278087323
30
0
10
-12.961002416989668
20
0.33150017527576153
30
0
0
SPLINE
5
133
100
AcDbEntity
8
0
100
AcDbSpline
70
0
71
2
72
6
73
3
74
0
42
0.000000001
43
0.0000000001
44
0.0000000001
40
0
40
0
40
0
40
1
40
1
40
1
10
-12.961002416989668
20
0.33150017527576153
30
0
10
-12.803378678939207
20
0.24908259777064956
30
0
10
-12.683873154303893
20
0.13472840456004775
30
0
0
SPLINE
5
134
100
AcDbEntity
8
0
100
AcDbSpline
70
0
71
2
72
6
73
3
74
0
42
0.000000001
43
0.0000000001
44
0.0000000001
40
0
40
0
40
0
40
1
40
1
40
1
10
-12.683873154303893
20
0.13472840456004775
30
0
10
-12.56436777868019
20
0.020373913326222071
30
0
10
-12.497403450391158
20
-0.13312890859608018
30
0
0
SPLINE
5
135
100
AcDbEntity
8
0
100
AcDbSpline
70
0
71
2
72
6
73
3
74
0
42
0.000000001
43
0.0000000001
44
0.0000000001
40
0
40
0
40
0
40
1
40
1
40
1
10
-12.497403450391158
20
-0.13312890859608018
30
0
10
-12.430439122102126
20
-0.28663173051838242
30
0
10
-12.442801721474989
20
-0.48649444910053574
30
0
0
SPLINE
5
136
100
AcDbEntity
8
0
100
AcDbSpline
70
0
71
2
72
6
73
3
74
0
42
0.000000001
43
0.0000000001
44
0.0000000001
40
0
40
0
40
0
40
1
40
1
40
1
10
-12.442801721474989
20
-0.48649444910053574
30
0
10
-12.45310393728958
20
-0.63690647216801011
30
0
10
-12.503584750077589
20
-0.75950279565815293
30
0
0
SPLINE
5
137
100
AcDbEntity
8
0
100
AcDbSpline
70
0
71
2
72
6
73
3
74
0
42
0.000000001
43
0.0000000001
44
0.0000000001
40
0
40
0
40
0
40
1
40
1
40
1
10
-12.503584750077589
20
-0.75950279565815293
30
0
10
-12.554065562865599
20
-0.88209882112507187
30
0
10
-12.636483140370711
20
-0.97687914701465928
30
0
0
SPLINE
5
138
100
AcDbEntity
8
0
100
AcDbSpline
70
0
71
2
72
6
73
3
74
0
42
0.000000001
43
0.0000000001
44
0.0000000001
40
0
40
0
40
0
40
1
40
1
40
1
10
-12.636483140370711
20
-0.97687914701465928
30
0
10
-12.718900717875822
20
-1.0716591748810229
30
0
10
-12.827073760411604
20
-1.1396537694549975
30
0
0
SPLINE
5
139
100
AcDbEntity
8
0
100
AcDbSpline
70
0
71
2
72
6
73
3
74
0
42
0.000000001
43
0.0000000001
44
0.0000000001
40
0
40
0
40
0
40
1
40
1
40
1
10
-12.827073760411604
20
-1.1396537694549975
30
0
10
-12.935246802947386
20
-1.2076483640289721
30
0
10
-13.059903509995802
20
-1.251947728118938
30
0
0
SPLINE
5
140
100
AcDbEntity
8
0
100
AcDbSpline
70
0
71
2
72
6
73
3
74
0
42
0.000000001
43
0.0000000001
44
0.0000000001
40
0
40
0
40
0
40
1
40
1
40
1
10
-13.059903509995802
20
-1.251947728118938
30
0
10
-13.184560068032606
20
-1.2962470922089031
30
0
10
-13.319518841884001
20
-1.316851523838084
30
0
0
SPLINE
5
141
100
AcDbEntity
8
0
100
AcDbSpline
70
0
71
2
72
6
73
3
74
0
42
0.000000001
43
0.0000000001
44
0.0000000001
40
0
40
0
40
0
40
1
40
1
40
1
10
-13.319518841884001
20
-1.316851523838084
30
0
10
-13.454477615735396
20
-1.3374559554672649
30
0
10
-13.590466581365927
20
-1.3353954228973797
30
0
0
SPLINE
5
142
100
AcDbEntity
8
0
100
AcDbSpline
70
0
71
2
72
6
73
3
74
0
42
0.000000001
43
0.0000000001
44
0.0000000001
40
0
40
0
40
0
40
1
40
1
40
1
10
-13.590466581365927
20
-1.3353954228973797
30
0
10
-13.815054573199614
20
-1.3312746557808324
30
0
10
-14.011826567432745
20
-1.265340593776743
30
0
0
SPLINE
5
143
100
AcDbEntity
8
0
100
AcDbSpline
70
0
71
2
72
6
73
3
74
0
42
0.000000001
43
0.0000000001
44
0.0000000001
40
0
40
0
40
0
40
1
40
1
40
1
10
-14.011826567432745
20
-1.265340593776743
30
0
10
-14.208598561665877
20
-1.1994065317726537
30
0
10
-14.353859551331862
20
-1.0737197074509068
30
0
0
SPLINE
5
144
100
AcDbEntity
8
0
100
AcDbSpline
70
0
71
2
72
6
73
3
74
0
42
0.000000001
43
0.0000000001
44
0.0000000001
40
0
40
0
40
0
40
1
40
1
40
1
10
-14.353859551331862
20
-1.0737197074509068
30
0
10
-14.49912057825075
20
-0.94803288312915956
30
0
10
-14.582568384787901
20
-0.76568409534458315
30
0
0
SPLINE
5
145
100
AcDbEntity
8
0
100
AcDbSpline
70
0
71
2
72
6
73
3
74
0
42
0.000000001
43
0.0000000001
44
0.0000000001
40
0
40
0
40
0
40
1
40
1
40
1
10
-14.582568384787901
20
-0.76568409534458315
30
0
10
-14.666016182011827
20
-0.58333500953678286
30
0
10
-14.661895303136571
20
-0.34638449283603823
30
0
0
LINE
5
146
100
AcDbEntity
8
0
100
AcDbLine
10
-14.661895303136571
20
-0.34638449283603823
30
0
11
-14.060246922156676
21
-0.34844502540592398
31
0
0
SPLINE
5
147
100
AcDbEntity
8
0
100
AcDbSpline
70
0
71
2
72
6
73
3
74
0
42
0.000000001
43
0.0000000001
44
0.0000000001
40
0
40
0
40
0
40
1
40
1
40
1
10
-14.060246922156676
20
-0.34844502540592404
30
0
10
-14.07054906346546
20
-0.59775814147953243
30
0
10
-13.943832047364577
20
-0.71932419868473263
30
0
0
SPLINE
5
148
100
AcDbEntity
8
0
100
AcDbSpline
70
0
71
2
72
6
73
3
74
0
42
0.000000001
43
0.0000000001
44
0.0000000001
40
0
40
0
40
0
40
1
40
1
40
1
10
-13.943832047364577
20
-0.71932419868473263
30
0
10
-13.817114956757887
20
-0.84088995786670895
30
0
10
-13.567801766178473
20
-0.84501102300648001
30
0
0
SPLINE
5
149
100
AcDbEntity
8
0
100
AcDbSpline
70
0
71
2
72
6
73
3
74
0
42
0.000000001
43
0.0000000001
44
0.0000000001
40
0
40
0
40
0
40
1
40
1
40
1
10
-13.567801766178473
20
-0.84501102300648001
30
0
10
-13.479202963492735
20
-0.84501102300648001
30
0
10
-13.392664469859465
20
-0.82646682592396048
30
0
0
SPLINE
5
150
100
AcDbEntity
8
0
100
AcDbSpline
70
0
71
2
72
6
73
3
74
0
42
0.000000001
43
0.0000000001
44
0.0000000001
40
0
40
0
40
0
40
1
40
1
40
1
10
-13.392664469859465
20
-0.82646682592396048
30
0
10
-13.306125976226195
20
-0.80792292686466483
30
0
10
-13.234010614535674
20
-0.76568409534458426
30
0
0
SPLINE
5
151
100
AcDbEntity
8
0
100
AcDbSpline
70
0
71
2
72
6
73
3
74
0
42
0.000000001
43
0.0000000001
44
0.0000000001
40
0
40
0
40
0
40
1
40
1
40
1
10
-13.234010614535674
20
-0.76568409534458426
30
0
10
-13.161895252845152
20
-0.72344496580127982
30
0
10
-13.111414440057143
20
-0.65545037122730521
30
0
0
SPLINE
5
152
100
AcDbEntity
8
0
100
AcDbSpline
70
0
71
2
72
6
73
3
74
0
42
0.000000001
43
0.0000000001
44
0.0000000001
40
0
40
0
40
0
40
1
40
1
40
1
10
-13.111414440057143
20
-0.65545037122730521
30
0
10
-13.060933627269133
20
-0.58745607467655503
30
0
10
-13.044450111768111
20
-0.49061521621708237
30
0
0
LINE
5
153
100
AcDbEntity
8
0
100
AcDbLine
10
-11.282774038693768
20
0.93932986525531337
30
0
11
-11.332224436185223
21
0.67559361723895595
31
0
0
SPLINE
5
154
100
AcDbEntity
8
0
100
AcDbSpline
70
0
71
2
72
6
73
3
74
0
42
0.000000001
43
0.0000000001
44
0.0000000001
40
0
40
0
40
0
40
1
40
1
40
1
10
-11.332224436185225
20
0.67559361723895595
30
0
10
-11.204477377316815
20
0.82394525674815666
30
0
10
-11.042732723138196
20
0.90327218441005241
30
0
0
SPLINE
5
155
100
AcDbEntity
8
0
100
AcDbSpline
70
0
71
2
72
6
73
3
74
0
42
0.000000001
43
0.0000000001
44
0.0000000001
40
0
40
0
40
0
40
1
40
1
40
1
10
-11.042732723138196
20
0.90327218441005241
30
0
10
-10.8809883669828
20
0.98259911207194794
30
0
10
-10.683186180970532
20
0.97847819594378938
30
0
0
SPLINE
5
156
100
AcDbEntity
8
0
100
AcDbSpline
70
0
71
2
72
6
73
3
74
0
42
0.000000001
43
0.0000000001
44
0.0000000001
40
0
40
0
40
0
40
1
40
1
40
1
10
-10.683186180970532
20
0.97847819594378938
30
0
10
-10.497746594331128
20
0.97435742882724252
30
0
10
-10.379271037957531
20
0.90224191812510934
30
0
0
SPLINE
5
157
100
AcDbEntity
8
0
100
AcDbSpline
70
0
71
2
72
6
73
3
74
0
42
0.000000001
43
0.0000000001
44
0.0000000001
40
0
40
0
40
0
40
1
40
1
40
1
10
-10.379271037957531
20
0.90224191812510934
30
0
10
-10.260796077630383
20
0.8301265564345881
30
0
10
-10.194862015626295
20
0.71165129808421546
30
0
0
SPLINE
5
158
100
AcDbEntity
8
0
100
AcDbSpline
70
0
71
2
72
6
73
3
74
0
42
0.000000001
43
0.0000000001
44
0.0000000001
40
0
40
0
40
0
40
1
40
1
40
1
10
-10.194862015626295
20
0.71165129808421546
30
0
10
-10.128927953622206
20
0.59317603973384314
30
0
10
-10.110383756539687
20
0.44070348409648352
30
0
0
SPLINE
5
159
100
AcDbEntity
8
0
100
AcDbSpline
70
0
71
2
72
6
73
3
74
0
42
0.000000001
43
0.0000000001
44
0.0000000001
40
0
40
0
40
0
40
1
40
1
40
1
10
-10.110383756539687
20
0.44070348409648352
30
0
10
-10.091839857480391
20
0.2882309284591239
30
0
10
-10.108323223969801
20
0.12545630601878577
30
0
0
LINE
5
160
100
AcDbEntity
8
0
100
AcDbLine
10
-10.108323223969801
20
0.12545630601878577
30
0
11
-10.343213506123885
21
-1.2921263250923589
31
0
0
LINE
5
161
100
AcDbEntity
8
0
100
AcDbLine
10
-10.343213506123885
20
-1.2921263250923594
30
0
11
-10.924257464787825
21
-1.2921263250923587
31
0
0
LINE
5
162
100
AcDbEntity
8
0
100
AcDbLine
10
-10.924257464787825
20
-1.2921263250923587
30
0
11
-10.685246415517195
21
0.13163730768199405
31
0
0
SPLINE
5
163
100
AcDbEntity
8
0
100
AcDbSpline
70
0
71
2
72
6
73
3
74
0
42
0.000000001
43
0.0000000001
44
0.0000000001
40
0
40
0
40
0
40
1
40
1
40
1
10
-10.685246415517195
20
0.13163730768199433
30
0
10
-10.674944050690993
20
0.21199450162883271
30
0
10
-10.682155616662367
20
0.277928712644534
30
0
0
SPLINE
5
164
100
AcDbEntity
8
0
100
AcDbSpline
70
0
71
2
72
6
73
3
74
0
42
0.000000001
43
0.0000000001
44
0.0000000001
40
0
40
0
40
0
40
1
40
1
40
1
10
-10.682155616662367
20
0.277928712644534
30
0
10
-10.689367182633742
20
0.34386277464862336
30
0
10
-10.71821344651924
20
0.39125293759341706
30
0
0
SPLINE
5
165
100
AcDbEntity
8
0
100
AcDbSpline
70
0
71
2
72
6
73
3
74
0
42
0.000000001
43
0.0000000001
44
0.0000000001
40
0
40
0
40
0
40
1
40
1
40
1
10
-10.71821344651924
20
0.39125293759341706
30
0
10
-10.747059710404738
20
0.43864310053821076
30
0
10
-10.802691705605849
20
0.46542883185382355
30
0
0
SPLINE
5
166
100
AcDbEntity
8
0
100
AcDbSpline
70
0
71
2
72
6
73
3
74
0
42
0.000000001
43
0.0000000001
44
0.0000000001
40
0
40
0
40
0
40
1
40
1
40
1
10
-10.802691705605849
20
0.46542883185382355
30
0
10
-10.858323402783736
20
0.49221441415782441
30
0
10
-10.944861896417006
20
0.49427494672770994
30
0
0
SPLINE
5
167
100
AcDbEntity
8
0
100
AcDbSpline
70
0
71
2
72
6
73
3
74
0
42
0.000000001
43
0.0000000001
44
0.0000000001
40
0
40
0
40
0
40
1
40
1
40
1
10
-10.944861896417006
20
0.49427494672770994
30
0
10
-11.074669487855299
20
0.49839586285586851
30
0
10
-11.174600847146376
20
0.43864310053821104
30
0
0
SPLINE
5
168
100
AcDbEntity
8
0
100
AcDbSpline
70
0
71
2
72
6
73
3
74
0
42
0.000000001
43
0.0000000001
44
0.0000000001
40
0
40
0
40
0
40
1
40
1
40
1
10
-11.174600847146376
20
0.43864310053821104
30
0
10
-11.274532206437453
20
0.37889033822055385
30
0
10
-11.354889400384291
20
0.28204962877269313
30
0
0
LINE
5
169
100
AcDbEntity
8
0
100
AcDbLine
10
-11.354889400384291
20
0.28204962877269313
30
0
11
-11.633048780343401
21
-1.2921263250923578
31
0
0
LINE
5
170
100
AcDbEntity
8
0
100
AcDbLine
10
-11.633048780343398
20
-1.292126325092358
30
0
11
-12.214092739007338
21
-1.2921263250923576
31
0
0
LINE
5
171
100
AcDbEntity
8
0
100
AcDbLine
10
-12.214092739007338
20
-1.2921263250923576
30
0
11
-11.826730199239117
21
0.93726948169704039
31
0
0
LINE
5
172
100
AcDbEntity
8
0
100
AcDbLine
10
-11.826730199239117
20
0.93726948169704039
30
0
11
-11.282774038693768
21
0.93932986525531326
31
0
0
SPLINE
5
173
100
AcDbEntity
8
0
100
AcDbSpline
70
0
71
2
72
6
73
3
74
0
42
0.000000001
43
0.0000000001
44
0.0000000001
40
0
40
0
40
0
40
1
40
1
40
1
10
-8.6042023972486117
20
-1.2921263250923603
30
0
10
-8.6206860617612442
20
-1.2406153950310199
30
0
10
-8.6248065308545669
20
-1.1921949658012836
30
0
0
SPLINE
5
174
100
AcDbEntity
8
0
100
AcDbSpline
70
0
71
2
72
6
73
3
74
0
42
0.000000001
43
0.0000000001
44
0.0000000001
40
0
40
0
40
0
40
1
40
1
40
1
10
-8.6248065308545669
20
-1.1921949658012836
30
0
10
-8.6289275959943375
20
-1.1437745365715473
30
0
10
-8.6268670634244522
20
-1.0902030739403217
30
0
0
SPLINE
5
175
100
AcDbEntity
8
0
100
AcDbSpline
70
0
71
2
72
6
73
3
74
0
42
0.000000001
43
0.0000000001
44
0.0000000001
40
0
40
0
40
0
40
1
40
1
40
1
10
-8.6268670634244522
20
-1.0902030739403217
30
0
10
-8.7443120554898819
20
-1.2076483640289752
30
0
10
-8.8854522780393221
20
-1.272552159748122
30
0
0
SPLINE
5
176
100
AcDbEntity
8
0
100
AcDbSpline
70
0
71
2
72
6
73
3
74
0
42
0.000000001
43
0.0000000001
44
0.0000000001
40
0
40
0
40
0
40
1
40
1
40
1
10
-8.8854522780393221
20
-1.272552159748122
30
0
10
-9.0265925005887606
20
-1.3374559554672687
30
0
10
-9.1955484227155306
20
-1.3333351883507216
30
0
0
SPLINE
5
177
100
AcDbEntity
8
0
100
AcDbSpline
70
0
71
2
72
6
73
3
74
0
42
0.000000001
43
0.0000000001
44
0.0000000001
40
0
40
0
40
0
40
1
40
1
40
1
10
-9.1955484227155306
20
-1.3333351883507216
30
0
10
-9.3356586770032504
20
-1.3312746557808364
30
0
10
-9.4582547024701693
20
-1.2838844928360427
30
0
0
SPLINE
5
178
100
AcDbEntity
8
0
100
AcDbSpline
70
0
71
2
72
6
73
3
74
0
42
0.000000001
43
0.0000000001
44
0.0000000001
40
0
40
0
40
0
40
1
40
1
40
1
10
-9.4582547024701693
20
-1.2838844928360427
30
0
10
-9.5808507279370865
20
-1.236494329891249
30
0
10
-9.6725405529950699
20
-1.1509861025429213
30
0
0
SPLINE
5
179
100
AcDbEntity
8
0
100
AcDbSpline
70
0
71
2
72
6
73
3
74
0
42
0.000000001
43
0.0000000001
44
0.0000000001
40
0
40
0
40
0
40
1
40
1
40
1
10
-9.6725405529950699
20
-1.1509861025429213
30
0
10
-9.7642300800298294
20
-1.0654778751945932
30
0
10
-9.8157410100911697
20
-0.9459723505592782
30
0
0
SPLINE
5
180
100
AcDbEntity
8
0
100
AcDbSpline
70
0
71
2
72
6
73
3
74
0
42
0.000000001
43
0.0000000001
44
0.0000000001
40
0
40
0
40
0
40
1
40
1
40
1
10
-9.8157410100911697
20
-0.9459723505592782
30
0
10
-9.8672519401525101
20
-0.82646682592396326
30
0
10
-9.8610706404660782
20
-0.68223610254292077
30
0
0
SPLINE
5
181
100
AcDbEntity
8
0
100
AcDbSpline
70
0
71
2
72
6
73
3
74
0
42
0.000000001
43
0.0000000001
44
0.0000000001
40
0
40
0
40
0
40
1
40
1
40
1
10
-9.8610706404660782
20
-0.68223610254292077
30
0
10
-9.8548893407796463
20
-0.53594484659199304
30
0
10
-9.80646891154991
20
-0.42365088792805261
30
0
0
SPLINE
5
182
100
AcDbEntity
8
0
100
AcDbSpline
70
0
71
2
72
6
73
3
74
0
42
0.000000001
43
0.0000000001
44
0.0000000001
40
0
40
0
40
0
40
1
40
1
40
1
10
-9.80646891154991
20
-0.42365088792805261
30
0
10
-9.7580487803433975
20
-0.31135692926411218
30
0
10
-9.6787215546582779
20
-0.22687896820072773
30
0
0
SPLINE
5
183
100
AcDbEntity
8
0
100
AcDbSpline
70
0
71
2
72
6
73
3
74
0
42
0.000000001
43
0.0000000001
44
0.0000000001
40
0
40
0
40
0
40
1
40
1
40
1
10
-9.6787215546582779
20
-0.22687896820072773
30
0
10
-9.599394925019606
20
-0.14240100713734272
30
0
10
-9.4943125323270401
20
-0.085739043674513127
30
0
0
SPLINE
5
184
100
AcDbEntity
8
0
100
AcDbSpline
70
0
71
2
72
6
73
3
74
0
42
0.000000001
43
0.0000000001
44
0.0000000001
40
0
40
0
40
0
40
1
40
1
40
1
10
-9.4943125323270401
20
-0.085739043674513127
30
0
10
-9.3892301396344742
20
-0.02907678218845966
30
0
10
-9.270754583260878
20
0.0059507813834702716
30
0
0
SPLINE
5
185
100
AcDbEntity
8
0
100
AcDbSpline
70
0
71
2
72
6
73
3
74
0
42
0.000000001
43
0.0000000001
44
0.0000000001
40
0
40
0
40
0
40
1
40
1
40
1
10
-9.270754583260878
20
0.0059507813834702716
30
0
10
-9.1522790268872818
20
0.040978046932176326
30
0
10
-9.0245319680188736
20
0.056431743183091299
30
0
0
SPLINE
5
186
100
AcDbEntity
8
0
100
AcDbSpline
70
0
71
2
72
6
73
3
74
0
42
0.000000001
43
0.0000000001
44
0.0000000001
40
0
40
0
40
0
40
1
40
1
40
1
10
-9.0245319680188736
20
0.056431743183091299
30
0
10
-8.8967849091504654
20
0.071884843387559072
30
0
10
-8.7731583193753799
20
0.071884843387559072
30
0
0
LINE
5
187
100
AcDbEntity
8
0
100
AcDbLine
10
-8.7731583193753799
20
0.071884843387559072
30
0
11
-8.5011805371259292
21
0.067763778247788342
31
0
0
LINE
5
188
100
AcDbEntity
8
0
100
AcDbLine
10
-8.5011805371259292
20
0.067763778247788564
30
0
11
-8.4723342732404312
21
0.20169243482585253
31
0
0
SPLINE
5
189
100
AcDbEntity
8
0
100
AcDbSpline
70
0
71
2
72
6
73
3
74
0
42
0.000000001
43
0.0000000001
44
0.0000000001
40
0
40
0
40
0
40
1
40
1
40
1
10
-8.4723342732404312
20
0.20169243482585253
30
0
10
-8.4599716738675674
20
0.26968702939982686
30
0
10
-8.4661532715772232
20
0.33047005800242696
30
0
0
SPLINE
5
190
100
AcDbEntity
8
0
100
AcDbSpline
70
0
71
2
72
6
73
3
74
0
42
0.000000001
43
0.0000000001
44
0.0000000001
40
0
40
0
40
0
40
1
40
1
40
1
10
-8.4661532715772232
20
0.33047005800242696
30
0
10
-8.4723342732404312
20
0.39125293759341512
30
0
10
-8.5001499728177627
20
0.4365827169799355
30
0
0
SPLINE
5
191
100
AcDbEntity
8
0
100
AcDbSpline
70
0
71
2
72
6
73
3
74
0
42
0.000000001
43
0.0000000001
44
0.0000000001
40
0
40
0
40
0
40
1
40
1
40
1
10
-8.5001499728177627
20
0.4365827169799355
30
0
10
-8.527966268441542
20
0.48191234735484395
30
0
10
-8.5784472302411636
20
0.50972819594378738
30
0
0
SPLINE
5
192
100
AcDbEntity
8
0
100
AcDbSpline
70
0
71
2
72
6
73
3
74
0
42
0.000000001
43
0.0000000001
44
0.0000000001
40
0
40
0
40
0
40
1
40
1
40
1
10
-8.5784472302411636
20
0.50972819594378738
30
0
10
-8.6289275959943375
20
0.53754419354434313
30
0
10
-8.7051637248014053
20
0.53960457710261645
30
0
0
SPLINE
5
193
100
AcDbEntity
8
0
100
AcDbSpline
70
0
71
2
72
6
73
3
74
0
42
0.000000001
43
0.0000000001
44
0.0000000001
40
0
40
0
40
0
40
1
40
1
40
1
10
-8.7051637248014053
20
0.53960457710261645
30
0
10
-8.8411529139493545
20
0.54372549323077501
30
0
10
-8.9359332398389419
20
0.47264039782519668
30
0
0
SPLINE
5
194
100
AcDbEntity
8
0
100
AcDbSpline
70
0
71
2
72
6
73
3
74
0
42
0.000000001
43
0.0000000001
44
0.0000000001
40
0
40
0
40
0
40
1
40
1
40
1
10
-8.9359332398389419
20
0.47264039782519668
30
0
10
-9.0307135657285293
20
0.40155515340800613
30
0
10
-9.0574992970441421
20
0.2676266458415541
30
0
0
LINE
5
195
100
AcDbEntity
8
0
100
AcDbLine
10
-9.0574992970441421
20
0.2676266458415541
30
0
11
-9.6406037882779678
21
0.26556611327166935
31
0
0
SPLINE
5
196
100
AcDbEntity
8
0
100
AcDbSpline
70
0
71
2
72
6
73
3
74
0
42
0.000000001
43
0.0000000001
44
0.0000000001
40
0
40
0
40
0
40
1
40
1
40
1
10
-9.6406037882779678
20
0.2655661132716694
30
0
10
-9.6323616579984268
20
0.4510056999110737
30
0
10
-9.5396418646787247
20
0.5869947400474107
30
0
0
SPLINE
5
197
100
AcDbEntity
8
0
100
AcDbSpline
70
0
71
2
72
6
73
3
74
0
42
0.000000001
43
0.0000000001
44
0.0000000001
40
0
40
0
40
0
40
1
40
1
40
1
10
-9.5396418646787247
20
0.5869947400474107
30
0
10
-9.4469220713590225
20
0.72298378018374798
30
0
10
-9.305781848809584
20
0.81158265737529156
30
0
0
SPLINE
5
198
100
AcDbEntity
8
0
100
AcDbSpline
70
0
71
2
72
6
73
3
74
0
42
0.000000001
43
0.0000000001
44
0.0000000001
40
0
40
0
40
0
40
1
40
1
40
1
10
-9.305781848809584
20
0.81158265737529156
30
0
10
-9.1646422223065933
20
0.90018153456683492
30
0
10
-8.993625767609938
20
0.94036013154025411
30
0
0
SPLINE
5
199
100
AcDbEntity
8
0
100
AcDbSpline
70
0
71
2
72
6
73
3
74
0
42
0.000000001
43
0.0000000001
44
0.0000000001
40
0
40
0
40
0
40
1
40
1
40
1
10
-8.993625767609938
20
0.94036013154025411
30
0
10
-8.8226093129132828
20
0.98053872851367296
30
0
10
-8.6577738598798355
20
0.97847834495539965
30
0
0
SPLINE
5
200
100
AcDbEntity
8
0
100
AcDbSpline
70
0
71
2
72
6
73
3
74
0
42
0.000000001
43
0.0000000001
44
0.0000000001
40
0
40
0
40
0
40
1
40
1
40
1
10
-8.6577738598798355
20
0.97847834495539965
30
0
10
-8.4826363400434097
20
0.97435742882724075
30
0
10
-8.333254583260878
20
0.92078596619601516
30
0
0
SPLINE
5
201
100
AcDbEntity
8
0
100
AcDbSpline
70
0
71
2
72
6
73
3
74
0
42
0.000000001
43
0.0000000001
44
0.0000000001
40
0
40
0
40
0
40
1
40
1
40
1
10
-8.333254583260878
20
0.92078596619601516
30
0
10
-8.1838728264783462
20
0.86721450356478935
30
0
10
-8.0787904337857803
20
0.76728329328532463
30
0
0
SPLINE
5
202
100
AcDbEntity
8
0
100
AcDbSpline
70
0
71
2
72
6
73
3
74
0
42
0.000000001
43
0.0000000001
44
0.0000000001
40
0
40
0
40
0
40
1
40
1
40
1
10
-8.0787904337857803
20
0.76728329328532463
30
0
10
-7.9737080410932135
20
0.66735193399424797
30
0
10
-7.9201365784619879
20
0.52312106160159333
30
0
0
SPLINE
5
203
100
AcDbEntity
8
0
100
AcDbSpline
70
0
71
2
72
6
73
3
74
0
42
0.000000001
43
0.0000000001
44
0.0000000001
40
0
40
0
40
0
40
1
40
1
40
1
10
-7.9201365784619879
20
0.52312106160159333
30
0
10
-7.8665651158307623
20
0.37889033822055079
30
0
10
-7.885108716866835
20
0.19345090059275871
30
0
0
LINE
5
204
100
AcDbEntity
8
0
100
AcDbLine
10
-7.885108716866835
20
0.19345090059275871
30
0
11
-8.0375815705274203
21
-0.75229122968678219
31
0
0
SPLINE
5
205
100
AcDbEntity
8
0
100
AcDbSpline
70
0
71
2
72
6
73
3
74
0
42
0.000000001
43
0.0000000001
44
0.0000000001
40
0
40
0
40
0
40
1
40
1
40
1
10
-8.0375815705274185
20
-0.7522912296867823
30
0
10
-8.047883637330397
20
-0.81410422655110115
30
0
10
-8.056125767609938
20
-0.87797805400852913
30
0
0
SPLINE
5
206
100
AcDbEntity
8
0
100
AcDbSpline
70
0
71
2
72
6
73
3
74
0
42
0.000000001
43
0.0000000001
44
0.0000000001
40
0
40
0
40
0
40
1
40
1
40
1
10
-8.056125767609938
20
-0.87797805400852913
30
0
10
-8.0643673018430313
20
-0.94185158344273323
30
0
10
-8.0664278344129166
20
-1.0057251128769373
30
0
0
SPLINE
5
207
100
AcDbEntity
8
0
100
AcDbSpline
70
0
71
2
72
6
73
3
74
0
42
0.000000001
43
0.0000000001
44
0.0000000001
40
0
40
0
40
0
40
1
40
1
40
1
10
-8.0664278344129166
20
-1.0057251128769373
30
0
10
-8.0684877709363541
20
-1.0695989403343653
30
0
10
-8.0612768010114273
20
-1.1324422034836268
30
0
0
SPLINE
5
208
100
AcDbEntity
8
0
100
AcDbSpline
70
0
71
2
72
6
73
3
74
0
42
0.000000001
43
0.0000000001
44
0.0000000001
40
0
40
0
40
0
40
1
40
1
40
1
10
-8.0612768010114273
20
-1.1324422034836268
30
0
10
-8.054064638993605
20
-1.1952857646561121
30
0
10
-8.0313999728177645
20
-1.2529779944038844
30
0
0
LINE
5
209
100
AcDbEntity
8
0
100
AcDbLine
10
-8.0313999728177645
20
-1.2529779944038844
30
0
11
-8.0334605053876498
21
-1.2921263250923609
31
0
0
LINE
5
210
100
AcDbEntity
8
0
100
AcDbLine
10
-8.0334605053876498
20
-1.2921263250923609
30
0
11
-8.6042023972486117
21
-1.2921263250923603
31
0
0
SPLINE
5
211
100
AcDbEntity
8
0
100
AcDbSpline
70
0
71
2
72
6
73
3
74
0
42
0.000000001
43
0.0000000001
44
0.0000000001
40
0
40
0
40
0
40
1
40
1
40
1
10
-9.0513176993344864
20
-0.88209882112507521
30
0
10
-8.9194495753263077
20
-0.88621958824162184
30
0
10
-8.8071556166623672
20
-0.82440659137730299
30
0
0
SPLINE
5
212
100
AcDbEntity
8
0
100
AcDbSpline
70
0
71
2
72
6
73
3
74
0
42
0.000000001
43
0.0000000001
44
0.0000000001
40
0
40
0
40
0
40
1
40
1
40
1
10
-8.8071556166623672
20
-0.82440659137730299
30
0
10
-8.6948616579984268
20
-0.76259329648976026
30
0
10
-8.6124439314817032
20
-0.66369220348362623
30
0
0
LINE
5
213
100
AcDbEntity
8
0
100
AcDbLine
10
-8.6124439314817032
20
-0.66369220348362623
30
0
11
-8.5403288678144058
21
-0.27838989826206867
31
0
0
LINE
5
214
100
AcDbEntity
8
0
100
AcDbLine
10
-8.5403288678144058
20
-0.27838989826206861
30
0
11
-8.7422515229199966
21
-0.27632966371540707
31
0
0
SPLINE
5
215
100
AcDbEntity
8
0
100
AcDbSpline
70
0
71
2
72
6
73
3
74
0
42
0.000000001
43
0.0000000001
44
0.0000000001
40
0
40
0
40
0
40
1
40
1
40
1
10
-8.7422515229199966
20
-0.27632966371540724
30
0
10
-8.830850847146376
20
-0.27838989826206861
30
0
10
-8.9194495753263077
20
-0.29796436162953077
30
0
0
SPLINE
5
216
100
AcDbEntity
8
0
100
AcDbSpline
70
0
71
2
72
6
73
3
74
0
42
0.000000001
43
0.0000000001
44
0.0000000001
40
0
40
0
40
0
40
1
40
1
40
1
10
-8.9194495753263077
20
-0.29796436162953077
30
0
10
-9.0080488995526871
20
-0.31753852697376905
30
0
10
-9.0811939314817032
20
-0.36080762477879225
30
0
0
SPLINE
5
217
100
AcDbEntity
8
0
100
AcDbSpline
70
0
71
2
72
6
73
3
74
0
42
0.000000001
43
0.0000000001
44
0.0000000001
40
0
40
0
40
0
40
1
40
1
40
1
10
-9.0811939314817032
20
-0.36080762477879225
30
0
10
-9.154339559457167
20
-0.40407672258381488
30
0
10
-9.2058504895185074
20
-0.47207131715778949
30
0
0
SPLINE
5
218
100
AcDbEntity
8
0
100
AcDbSpline
70
0
71
2
72
6
73
3
74
0
42
0.000000001
43
0.0000000001
44
0.0000000001
40
0
40
0
40
0
40
1
40
1
40
1
10
-9.2058504895185074
20
-0.47207131715778949
30
0
10
-9.2573620156262955
20
-0.5400659117317641
30
0
10
-9.2697246149991592
20
-0.63896700473789814
30
0
0
SPLINE
5
219
100
AcDbEntity
8
0
100
AcDbSpline
70
0
71
2
72
6
73
3
74
0
42
0.000000001
43
0.0000000001
44
0.0000000001
40
0
40
0
40
0
40
1
40
1
40
1
10
-9.2697246149991592
20
-0.63896700473789814
30
0
10
-9.2862076834653458
20
-0.75023069711689594
30
0
10
-9.2233647183393082
20
-0.81513449283604267
30
0
0
SPLINE
5
220
100
AcDbEntity
8
0
100
AcDbSpline
70
0
71
2
72
6
73
3
74
0
42
0.000000001
43
0.0000000001
44
0.0000000001
40
0
40
0
40
0
40
1
40
1
40
1
10
-9.2233647183393082
20
-0.81513449283604267
30
0
10
-9.1605211571668228
20
-0.8800382885551894
30
0
10
-9.0513176993344864
20
-0.88209882112507521
30
0
0
LINE
5
221
100
AcDbEntity
8
0
100
AcDbLine
10
-7.0588727072690585
20
-1.292126325092362
30
0
11
-7.6440377310727694
21
-1.2921263250923616
31
0
0
LINE
5
222
100
AcDbEntity
8
0
100
AcDbLine
10
-7.6440377310727694
20
-1.2921263250923616
30
0
11
-7.2566748932813248
21
0.93726948169703639
31
0
0
LINE
5
223
100
AcDbEntity
8
0
100
AcDbLine
10
-7.2566748932813239
20
0.93726948169703639
30
0
11
-6.6715098694776129
21
0.93726948169703594
31
0
0
LINE
5
224
100
AcDbEntity
8
0
100
AcDbLine
10
-6.6715098694776129
20
0.93726948169703617
30
0
11
-7.0588727072690567
21
-1.2921263250923618
31
0
0
SPLINE
5
225
100
AcDbEntity
8
0
100
AcDbSpline
70
0
71
2
72
6
73
3
74
0
42
0.000000001
43
0.0000000001
44
0.0000000001
40
0
40
0
40
0
40
1
40
1
40
1
10
-7.1886802987073493
20
1.503890308418228
30
0
10
-7.1907408312772345
20
1.5739454355620879
30
0
10
-7.1670461968396735
20
1.6316376653098599
30
0
0
SPLINE
5
226
100
AcDbEntity
8
0
100
AcDbSpline
70
0
71
2
72
6
73
3
74
0
42
0.000000001
43
0.0000000001
44
0.0000000001
40
0
40
0
40
0
40
1
40
1
40
1
10
-7.1670461968396735
20
1.6316376653098599
30
0
10
-7.1433509663556647
20
1.6893298950576321
30
0
10
-7.1000815705274176
20
1.7315690246009365
30
0
0
SPLINE
5
227
100
AcDbEntity
8
0
100
AcDbSpline
70
0
71
2
72
6
73
3
74
0
42
0.000000001
43
0.0000000001
44
0.0000000001
40
0
40
0
40
0
40
1
40
1
40
1
10
-7.1000815705274176
20
1.7315690246009365
30
0
10
-7.0568121746991705
20
1.7738078561210171
30
0
10
-6.997059710404737
20
1.7985333528899683
30
0
0
SPLINE
5
228
100
AcDbEntity
8
0
100
AcDbSpline
70
0
71
2
72
6
73
3
74
0
42
0.000000001
43
0.0000000001
44
0.0000000001
40
0
40
0
40
0
40
1
40
1
40
1
10
-6.997059710404737
20
1.7985333528899683
30
0
10
-6.9373066500638556
20
1.8232585516356958
30
0
10
-6.8693126515363288
20
1.8232585516356958
30
0
0
SPLINE
5
229
100
AcDbEntity
8
0
100
AcDbSpline
70
0
71
2
72
6
73
3
74
0
42
0.000000001
43
0.0000000001
44
0.0000000001
40
0
40
0
40
0
40
1
40
1
40
1
10
-6.8693126515363288
20
1.8232585516356958
30
0
10
-6.8033779934857916
20
1.8253190842055811
30
0
10
-6.743625529191358
20
1.8036843862914576
30
0
0
SPLINE
5
230
100
AcDbEntity
8
0
100
AcDbSpline
70
0
71
2
72
6
73
3
74
0
42
0.000000001
43
0.0000000001
44
0.0000000001
40
0
40
0
40
0
40
1
40
1
40
1
10
-6.743625529191358
20
1.8036843862914576
30
0
10
-6.6838730648969245
20
1.782049688377334
30
0
10
-6.6395731047605109
20
1.7429013576888575
30
0
0
SPLINE
5
231
100
AcDbEntity
8
0
100
AcDbSpline
70
0
71
2
72
6
73
3
74
0
42
0.000000001
43
0.0000000001
44
0.0000000001
40
0
40
0
40
0
40
1
40
1
40
1
10
-6.6395731047605109
20
1.7429013576888575
30
0
10
-6.5952737406705451
20
1.7037530270003809
30
0
10
-6.5684880093549323
20
1.6481210317992701
30
0
0
SPLINE
5
232
100
AcDbEntity
8
0
100
AcDbSpline
70
0
71
2
72
6
73
3
74
0
42
0.000000001
43
0.0000000001
44
0.0000000001
40
0
40
0
40
0
40
1
40
1
40
1
10
-6.5684880093549323
20
1.6481210317992701
30
0
10
-6.5417022780393195
20
1.5924893346213831
30
0
10
-6.5396417454694342
20
1.5244947400474085
30
0
0
SPLINE
5
233
100
AcDbEntity
8
0
100
AcDbSpline
70
0
71
2
72
6
73
3
74
0
42
0.000000001
43
0.0000000001
44
0.0000000001
40
0
40
0
40
0
40
1
40
1
40
1
10
-6.5396417454694342
20
1.5244947400474085
30
0
10
-6.5375818089459967
20
1.4544399109267723
30
0
10
-6.5623070076917243
20
1.3967473831557762
30
0
0
SPLINE
5
234
100
AcDbEntity
8
0
100
AcDbSpline
70
0
71
2
72
6
73
3
74
0
42
0.000000001
43
0.0000000001
44
0.0000000001
40
0
40
0
40
0
40
1
40
1
40
1
10
-6.5623070076917243
20
1.3967473831557762
30
0
10
-6.5870322064374518
20
1.339055153408004
30
0
10
-6.6303016022656989
20
1.295786055602981
30
0
0
SPLINE
5
235
100
AcDbEntity
8
0
100
AcDbSpline
70
0
71
2
72
6
73
3
74
0
42
0.000000001
43
0.0000000001
44
0.0000000001
40
0
40
0
40
0
40
1
40
1
40
1
10
-6.6303016022656989
20
1.295786055602981
30
0
10
-6.6735704020474982
20
1.2525166597747339
30
0
10
-6.732292898080213
20
1.228821727313949
30
0
0
SPLINE
5
236
100
AcDbEntity
8
0
100
AcDbSpline
70
0
71
2
72
6
73
3
74
0
42
0.000000001
43
0.0000000001
44
0.0000000001
40
0
40
0
40
0
40
1
40
1
40
1
10
-6.732292898080213
20
1.228821727313949
30
0
10
-6.7910159901593756
20
1.2051266458415522
30
0
10
-6.8590099886869025
20
1.2030661132716669
30
0
0
SPLINE
5
237
100
AcDbEntity
8
0
100
AcDbSpline
70
0
71
2
72
6
73
3
74
0
42
0.000000001
43
0.0000000001
44
0.0000000001
40
0
40
0
40
0
40
1
40
1
40
1
10
-6.8590099886869025
20
1.2030661132716669
30
0
10
-6.9270045832608771
20
1.2010057297133936
30
0
10
-6.9857270792935919
20
1.2226404276275173
30
0
0
SPLINE
5
238
100
AcDbEntity
8
0
100
AcDbSpline
70
0
71
2
72
6
73
3
74
0
42
0.000000001
43
0.0000000001
44
0.0000000001
40
0
40
0
40
0
40
1
40
1
40
1
10
-6.9857270792935919
20
1.2226404276275173
30
0
10
-7.0444495753263068
20
1.2442751255416409
30
0
10
-7.0897795037244391
20
1.2834234562301174
30
0
0
SPLINE
5
239
100
AcDbEntity
8
0
100
AcDbSpline
70
0
71
2
72
6
73
3
74
0
42
0.000000001
43
0.0000000001
44
0.0000000001
40
0
40
0
40
0
40
1
40
1
40
1
10
-7.0897795037244391
20
1.2834234562301174
30
0
10
-7.1351088360761237
20
1.322571786918594
30
0
10
-7.1608645991300177
20
1.3792337503814236
30
0
0
SPLINE
5
240
100
AcDbEntity
8
0
100
AcDbSpline
70
0
71
2
72
6
73
3
74
0
42
0.000000001
43
0.0000000001
44
0.0000000001
40
0
40
0
40
0
40
1
40
1
40
1
10
-7.1608645991300177
20
1.3792337503814236
30
0
10
-7.1866203621839118
20
1.4358960118674771
30
0
10
-7.1886802987073493
20
1.503890308418228
30
0
0
LINE
5
241
100
AcDbEntity
8
0
100
AcDbLine
10
-5.9524167851422884
20
-1.2921263250923625
30
0
11
-6.5375818089459994
21
-1.292126325092362
31
0
0
LINE
5
242
100
AcDbEntity
8
0
100
AcDbLine
10
-6.5375818089459994
20
-1.292126325092362
30
0
11
-5.9874446467374396
21
1.8727092471503743
31
0
0
LINE
5
243
100
AcDbEntity
8
0
100
AcDbLine
10
-5.9874446467374396
20
1.8727092471503743
30
0
11
-5.4043401555036139
21
1.8727092471503737
31
0
0
LINE
5
244
100
AcDbEntity
8
0
100
AcDbLine
10
-5.4043401555036139
20
1.8727092471503737
30
0
11
-5.9524167851422884
21
-1.2921263250923625
31
0
0
LINE
5
245
100
AcDbEntity
8
0
100
AcDbLine
10
-3.0492569283460225
20
-1.2921263250923654
30
0
11
-3.6529649571393574
21
-1.2921263250923647
31
0
0
LINE
5
246
100
AcDbEntity
8
0
100
AcDbLine
10
-3.6529649571393574
20
-1.2921263250923647
30
0
11
-3.4304381684278082
21
-0.0064118179893987715
31
0
0
LINE
5
247
100
AcDbEntity
8
0
100
AcDbLine
10
-3.4304381684278096
20
-0.0064118179893984939
30
0
11
-4.5945860222791275
21
-0.0064118179893975225
31
0
0
LINE
5
248
100
AcDbEntity
8
0
100
AcDbLine
10
-4.5945860222791275
20
-0.0064118179893973837
30
0
11
-4.8191745356534579
21
-1.2921263250923634
31
0
0
LINE
5
249
100
AcDbEntity
8
0
100
AcDbLine
10
-4.8191745356534579
20
-1.2921263250923638
30
0
11
-5.4228831604932406
21
-1.2921263250923631
31
0
0
LINE
5
250
100
AcDbEntity
8
0
100
AcDbLine
10
-5.4228831604932406
20
-1.2921263250923631
30
0
11
-4.9015916661237311
21
1.7078737941169257
31
0
0
LINE
5
251
100
AcDbEntity
8
0
100
AcDbLine
10
-4.9015916661237311
20
1.7078737941169257
30
0
11
-4.2978824452375006
21
1.7078737941169253
31
0
0
LINE
5
252
100
AcDbEntity
8
0
100
AcDbLine
10
-4.2978824452374997
20
1.7078737941169253
30
0
11
-4.5101083592389655
21
0.49221441415781897
31
0
0
LINE
5
253
100
AcDbEntity
8
0
100
AcDbLine
10
-4.5101083592389664
20
0.49221441415781914
30
0
11
-3.3438993767713154
21
0.49221441415781819
31
0
0
LINE
5
254
100
AcDbEntity
8
0
100
AcDbLine
10
-3.3438993767713154
20
0.4922144141578183
30
0
11
-3.1337345913861823
21
1.7078737941169249
31
0
0
LINE
5
255
100
AcDbEntity
8
0
100
AcDbLine
10
-3.1337345913861814
20
1.7078737941169244
30
0
11
-2.5300253704999509
21
1.707873794116924
31
0
0
LINE
5
256
100
AcDbEntity
8
0
100
AcDbLine
10
-2.5300253704999509
20
1.7078737941169242
30
0
11
-3.0492569283460225
21
-1.2921263250923647
31
0
0
SPLINE
5
257
100
AcDbEntity
8
0
100
AcDbSpline
70
0
71
2
72
6
73
3
74
0
42
0.000000001
43
0.0000000001
44
0.0000000001
40
0
40
0
40
0
40
1
40
1
40
1
10
-1.5121687725995625
20
-1.3333351883507283
30
0
10
-1.7429376915906514
20
-1.3292141232109578
30
0
10
-1.9232262448285664
20
-1.2447361621475723
30
0
0
SPLINE
5
258
100
AcDbEntity
8
0
100
AcDbSpline
70
0
71
2
72
6
73
3
74
0
42
0.000000001
43
0.0000000001
44
0.0000000001
40
0
40
0
40
0
40
1
40
1
40
1
10
-1.9232262448285664
20
-1.2447361621475723
30
0
10
-2.1035147980664815
20
-1.1602582010841873
30
0
10
-2.2250808552716816
20
-1.0160274777031448
30
0
0
SPLINE
5
259
100
AcDbEntity
8
0
100
AcDbSpline
70
0
71
2
72
6
73
3
74
0
42
0.000000001
43
0.0000000001
44
0.0000000001
40
0
40
0
40
0
40
1
40
1
40
1
10
-2.2250808552716816
20
-1.0160274777031448
30
0
10
-2.3466469124768818
20
-0.87179675432210224
30
0
10
-2.4022795037244404
20
-0.67708506914143818
30
0
0
SPLINE
5
260
100
AcDbEntity
8
0
100
AcDbSpline
70
0
71
2
72
6
73
3
74
0
42
0.000000001
43
0.0000000001
44
0.0000000001
40
0
40
0
40
0
40
1
40
1
40
1
10
-2.4022795037244404
20
-0.67708506914143818
30
0
10
-2.4579109028791035
20
-0.48237338396077356
30
0
10
-2.4373067692731465
20
-0.25984599920277796
30
0
0
LINE
5
261
100
AcDbEntity
8
0
100
AcDbLine
10
-2.4373067692731465
20
-0.25984599920277796
30
0
11
-2.4290646389936055
21
-0.17742827268605432
31
0
0
SPLINE
5
262
100
AcDbEntity
8
0
100
AcDbSpline
70
0
71
2
72
6
73
3
74
0
42
0.000000001
43
0.0000000001
44
0.0000000001
40
0
40
0
40
0
40
1
40
1
40
1
10
-2.4290646389936055
20
-0.17742827268605488
30
0
10
-2.4043394402478779
20
0.055401178874919244
30
0
10
-2.3136795834516133
20
0.26762649682993661
30
0
0
SPLINE
5
263
100
AcDbEntity
8
0
100
AcDbSpline
70
0
71
2
72
6
73
3
74
0
42
0.000000001
43
0.0000000001
44
0.0000000001
40
0
40
0
40
0
40
1
40
1
40
1
10
-2.3136795834516133
20
0.26762649682993661
30
0
10
-2.2230209187482441
20
0.47985181478495342
30
0
10
-2.0736385659192647
20
0.63953593639368755
30
0
0
SPLINE
5
264
100
AcDbEntity
8
0
100
AcDbSpline
70
0
71
2
72
6
73
3
74
0
42
0.000000001
43
0.0000000001
44
0.0000000001
40
0
40
0
40
0
40
1
40
1
40
1
10
-2.0736385659192647
20
0.63953593639368755
30
0
10
-1.9242574051831807
20
0.79922005800242135
30
0
10
-1.7202736214612568
20
0.89193970231051156
30
0
0
SPLINE
5
265
100
AcDbEntity
8
0
100
AcDbSpline
70
0
71
2
72
6
73
3
74
0
42
0.000000001
43
0.0000000001
44
0.0000000001
40
0
40
0
40
0
40
1
40
1
40
1
10
-1.7202736214612568
20
0.89193970231051156
30
0
10
-1.516289837739333
20
0.98465949563021349
30
0
10
-1.2669767216657246
20
0.97847819594378138
30
0
0
SPLINE
5
266
100
AcDbEntity
8
0
100
AcDbSpline
70
0
71
2
72
6
73
3
74
0
42
0.000000001
43
0.0000000001
44
0.0000000001
40
0
40
0
40
0
40
1
40
1
40
1
10
-1.2669767216657246
20
0.97847819594378138
30
0
10
-1.0320867375348652
20
0.97435742882723475
30
0
10
-0.86725128450141797
20
0.88266775278086296
30
0
0
SPLINE
5
267
100
AcDbEntity
8
0
100
AcDbSpline
70
0
71
2
72
6
73
3
74
0
42
0.000000001
43
0.0000000001
44
0.0000000001
40
0
40
0
40
0
40
1
40
1
40
1
10
-0.86725128450141797
20
0.88266775278086296
30
0
10
-0.70241583146797071
20
0.79097822574610344
30
0
10
-0.60351503648506055
20
0.63953593639368611
30
0
0
SPLINE
5
268
100
AcDbEntity
8
0
100
AcDbSpline
70
0
71
2
72
6
73
3
74
0
42
0.000000001
43
0.0000000001
44
0.0000000001
40
0
40
0
40
0
40
1
40
1
40
1
10
-0.60351503648506055
20
0.63953593639368611
30
0
10
-0.5046142415021504
20
0.48809364704126917
30
0
10
-0.46958697595344434
20
0.2913215783023318
30
0
0
SPLINE
5
269
100
AcDbEntity
8
0
100
AcDbSpline
70
0
71
2
72
6
73
3
74
0
42
0.000000001
43
0.0000000001
44
0.0000000001
40
0
40
0
40
0
40
1
40
1
40
1
10
-0.46958697595344434
20
0.2913215783023318
30
0
10
-0.43455851831184278
20
0.094549509563394141
30
0
10
-0.45928490915046583
20
-0.11767580839162239
30
0
0
LINE
5
270
100
AcDbEntity
8
0
100
AcDbLine
10
-0.45928490915046583
20
-0.11767580839162239
30
0
11
-0.4984332398389425
21
-0.37110969158177742
31
0
0
LINE
5
271
100
AcDbEntity
8
0
100
AcDbLine
10
-0.49843323983894239
20
-0.37110969158177742
30
0
11
-1.8624438122724141
21
-0.37110969158177631
31
0
0
SPLINE
5
272
100
AcDbEntity
8
0
100
AcDbSpline
70
0
71
2
72
6
73
3
74
0
42
0.000000001
43
0.0000000001
44
0.0000000001
40
0
40
0
40
0
40
1
40
1
40
1
10
-1.8624438122724141
20
-0.37110969158177631
30
0
10
-1.8686248139356221
20
-0.47001078458791035
30
0
10
-1.8459607438062275
20
-0.55654927822118061
30
0
0
SPLINE
5
273
100
AcDbEntity
8
0
100
AcDbSpline
70
0
71
2
72
6
73
3
74
0
42
0.000000001
43
0.0000000001
44
0.0000000001
40
0
40
0
40
0
40
1
40
1
40
1
10
-1.8459607438062275
20
-0.55654927822118061
30
0
10
-1.8232954815839375
20
-0.64308777185445087
30
0
10
-1.7728151158307637
20
-0.7079915675735976
30
0
0
SPLINE
5
274
100
AcDbEntity
8
0
100
AcDbSpline
70
0
71
2
72
6
73
3
74
0
42
0.000000001
43
0.0000000001
44
0.0000000001
40
0
40
0
40
0
40
1
40
1
40
1
10
-1.7728151158307637
20
-0.7079915675735976
30
0
10
-1.7223335579846943
20
-0.77289536329274489
30
0
10
-1.6440368966077412
20
-0.8110137257195027
30
0
0
SPLINE
5
275
100
AcDbEntity
8
0
100
AcDbSpline
70
0
71
2
72
6
73
3
74
0
42
0.000000001
43
0.0000000001
44
0.0000000001
40
0
40
0
40
0
40
1
40
1
40
1
10
-1.6440368966077412
20
-0.8110137257195027
30
0
10
-1.5657402352307881
20
-0.84913179012303663
30
0
10
-1.4606584385846699
20
-0.85119232269292189
30
0
0
SPLINE
5
276
100
AcDbEntity
8
0
100
AcDbSpline
70
0
71
2
72
6
73
3
74
0
42
0.000000001
43
0.0000000001
44
0.0000000001
40
0
40
0
40
0
40
1
40
1
40
1
10
-1.4606584385846699
20
-0.85119232269292189
30
0
10
-1.2937618569348897
20
-0.85737362237935377
30
0
10
-1.1536527947400654
20
-0.79040929409032179
30
0
0
SPLINE
5
277
100
AcDbEntity
8
0
100
AcDbSpline
70
0
71
2
72
6
73
3
74
0
42
0.000000001
43
0.0000000001
44
0.0000000001
40
0
40
0
40
0
40
1
40
1
40
1
10
-1.1536527947400654
20
-0.79040929409032179
30
0
10
-1.0135425404523457
20
-0.72344496580129036
30
0
10
-0.90021861352668653
20
-0.60599997373586068
30
0
0
LINE
5
278
100
AcDbEntity
8
0
100
AcDbLine
10
-0.90021861352668653
20
-0.60599997373586068
30
0
11
-0.63648236551032933
21
-0.93773081632619304
31
0
0
SPLINE
5
279
100
AcDbEntity
8
0
100
AcDbSpline
70
0
71
2
72
6
73
3
74
0
42
0.000000001
43
0.0000000001
44
0.0000000001
40
0
40
0
40
0
40
1
40
1
40
1
10
-0.63648236551032911
20
-0.93773081632619271
30
0
10
-0.70653689660774122
20
-1.0428132090187585
30
0
10
-0.80646885194526563
20
-1.1190493378258264
30
0
0
SPLINE
5
280
100
AcDbEntity
8
0
100
AcDbSpline
70
0
71
2
72
6
73
3
74
0
42
0.000000001
43
0.0000000001
44
0.0000000001
40
0
40
0
40
0
40
1
40
1
40
1
10
-0.80646885194526563
20
-1.1190493378258264
30
0
10
-0.90639961518989454
20
-1.1952857646561181
30
0
10
-1.0228146389936055
20
-1.2437058958626306
30
0
0
SPLINE
5
281
100
AcDbEntity
8
0
100
AcDbSpline
70
0
71
2
72
6
73
3
74
0
42
0.000000001
43
0.0000000001
44
0.0000000001
40
0
40
0
40
0
40
1
40
1
40
1
10
-1.0228146389936055
20
-1.2437058958626306
30
0
10
-1.1392296627973164
20
-1.2921263250923665
30
0
10
-1.2649167851422871
20
-1.31376102300649
30
0
0
SPLINE
5
282
100
AcDbEntity
8
0
100
AcDbSpline
70
0
71
2
72
6
73
3
74
0
42
0.000000001
43
0.0000000001
44
0.0000000001
40
0
40
0
40
0
40
1
40
1
40
1
10
-1.2649167851422871
20
-1.31376102300649
30
0
10
-1.3906027153943623
20
-1.3353954228973897
30
0
10
-1.5121687725995625
20
-1.3333351883507283
30
0
0
SPLINE
5
283
100
AcDbEntity
8
0
100
AcDbSpline
70
0
71
2
72
6
73
3
74
0
42
0.000000001
43
0.0000000001
44
0.0000000001
40
0
40
0
40
0
40
1
40
1
40
1
10
-1.2978829220746602
20
0.50045624641413378
30
0
10
-1.4050258473371113
20
0.50251662997240709
30
0
10
-1.4864136055921162
20
0.46336829928393053
30
0
0
SPLINE
5
284
100
AcDbEntity
8
0
100
AcDbSpline
70
0
71
2
72
6
73
3
74
0
42
0.000000001
43
0.0000000001
44
0.0000000001
40
0
40
0
40
0
40
1
40
1
40
1
10
-1.4864136055921162
20
0.46336829928393053
30
0
10
-1.5678013638471211
20
0.42421996859545397
30
0
10
-1.6306449250196065
20
0.35725564030642226
30
0
0
SPLINE
5
285
100
AcDbEntity
8
0
100
AcDbSpline
70
0
71
2
72
6
73
3
74
0
42
0.000000001
43
0.0000000001
44
0.0000000001
40
0
40
0
40
0
40
1
40
1
40
1
10
-1.6306449250196065
20
0.35725564030642226
30
0
10
-1.6934872940991963
20
0.29029131201739028
30
0
10
-1.7388178185437764
20
0.20478293565745043
30
0
0
SPLINE
5
286
100
AcDbEntity
8
0
100
AcDbSpline
70
0
71
2
72
6
73
3
74
0
42
0.000000001
43
0.0000000001
44
0.0000000001
40
0
40
0
40
0
40
1
40
1
40
1
10
-1.7388178185437764
20
0.20478293565745043
30
0
10
-1.7841471508954609
20
0.11927470830912335
30
0
10
-1.819174416444167
20
0.032736512699076958
30
0
0
LINE
5
287
100
AcDbEntity
8
0
100
AcDbLine
10
-1.819174416444167
20
0.032736512699076958
30
0
11
-1.0176636055921162
21
0.032736512699076292
31
0
0
LINE
5
288
100
AcDbEntity
8
0
100
AcDbLine
10
-1.0176636055921162
20
0.032736512699075848
30
0
11
-1.0053004101728047
21
0.088368209876962811
31
0
0
SPLINE
5
289
100
AcDbEntity
8
0
100
AcDbSpline
70
0
71
2
72
6
73
3
74
0
42
0.000000001
43
0.0000000001
44
0.0000000001
40
0
40
0
40
0
40
1
40
1
40
1
10
-1.0053004101728047
20
0.088368209876962811
30
0
10
-0.99087727823005567
20
0.17078593639368644
30
0
10
-1.0001493767713154
20
0.24496168164248128
30
0
0
SPLINE
5
290
100
AcDbEntity
8
0
100
AcDbSpline
70
0
71
2
72
6
73
3
74
0
42
0.000000001
43
0.0000000001
44
0.0000000001
40
0
40
0
40
0
40
1
40
1
40
1
10
-1.0001493767713154
20
0.24496168164248128
30
0
10
-1.0094214753125752
20
0.31913757590288777
30
0
10
-1.0454799012158955
20
0.37476942209238667
30
0
0
SPLINE
5
291
100
AcDbEntity
8
0
100
AcDbSpline
70
0
71
2
72
6
73
3
74
0
42
0.000000001
43
0.0000000001
44
0.0000000001
40
0
40
0
40
0
40
1
40
1
40
1
10
-1.0454799012158955
20
0.37476942209238667
30
0
10
-1.0815371350263203
20
0.43040126828188557
30
0
10
-1.1443806961988057
20
0.46336829928393025
30
0
0
SPLINE
5
292
100
AcDbEntity
8
0
100
AcDbSpline
70
0
71
2
72
6
73
3
74
0
42
0.000000001
43
0.0000000001
44
0.0000000001
40
0
40
0
40
0
40
1
40
1
40
1
10
-1.1443806961988057
20
0.46336829928393025
30
0
10
-1.207224257371291
20
0.49633533028597493
30
0
10
-1.2978829220746602
20
0.50045624641413378
30
0
0
SPLINE
5
293
100
AcDbEntity
8
0
100
AcDbSpline
70
0
71
2
72
6
73
3
74
0
42
0.000000001
43
0.0000000001
44
0.0000000001
40
0
40
0
40
0
40
1
40
1
40
1
10
0.97066032133354296
20
-1.2921263250923687
30
0
10
0.95417606077446093
20
-1.2406153950310284
30
0
10
0.95005618772758593
20
-1.192194965801292
30
0
0
SPLINE
5
294
100
AcDbEntity
8
0
100
AcDbSpline
70
0
71
2
72
6
73
3
74
0
42
0.000000001
43
0.0000000001
44
0.0000000001
40
0
40
0
40
0
40
1
40
1
40
1
10
0.95005618772758593
20
-1.192194965801292
30
0
10
0.94593512258781542
20
-1.1437745365715557
30
0
10
0.94799505911125292
20
-1.0902030739403301
30
0
0
SPLINE
5
295
100
AcDbEntity
8
0
100
AcDbSpline
70
0
71
2
72
6
73
3
74
0
42
0.000000001
43
0.0000000001
44
0.0000000001
40
0
40
0
40
0
40
1
40
1
40
1
10
0.94799505911125292
20
-1.0902030739403301
30
0
10
0.83055006704582324
20
-1.2076483640289832
30
0
10
0.68940984449638476
20
-1.27255215974813
30
0
0
SPLINE
5
296
100
AcDbEntity
8
0
100
AcDbSpline
70
0
71
2
72
6
73
3
74
0
42
0.000000001
43
0.0000000001
44
0.0000000001
40
0
40
0
40
0
40
1
40
1
40
1
10
0.68940984449638476
20
-1.27255215974813
30
0
10
0.54826962194694628
20
-1.3374559554672767
30
0
10
0.37931429586662402
20
-1.3333351883507301
30
0
0
SPLINE
5
297
100
AcDbEntity
8
0
100
AcDbSpline
70
0
71
2
72
6
73
3
74
0
42
0.000000001
43
0.0000000001
44
0.0000000001
40
0
40
0
40
0
40
1
40
1
40
1
10
0.37931429586662402
20
-1.3333351883507301
30
0
10
0.23920404157890429
20
-1.3312746557808448
30
0
10
0.11660801611198535
20
-1.2838844928360504
30
0
0
SPLINE
5
298
100
AcDbEntity
8
0
100
AcDbSpline
70
0
71
2
72
6
73
3
74
0
42
0.000000001
43
0.0000000001
44
0.0000000001
40
0
40
0
40
0
40
1
40
1
40
1
10
0.11660801611198535
20
-1.2838844928360504
30
0
10
-0.0059880093549335989
20
-1.2364943298912567
30
0
10
-0.097677834412916997
20
-1.1509861025429291
30
0
0
SPLINE
5
299
100
AcDbEntity
8
0
100
AcDbSpline
70
0
71
2
72
6
73
3
74
0
42
0.000000001
43
0.0000000001
44
0.0000000001
40
0
40
0
40
0
40
1
40
1
40
1
10
-0.097677834412916997
20
-1.1509861025429291
30
0
10
-0.1893676594709004
20
-1.0654778751946015
30
0
10
-0.24087799348579297
20
-0.94597235055928652
30
0
0
SPLINE
5
300
100
AcDbEntity
8
0
100
AcDbSpline
70
0
71
2
72
6
73
3
74
0
42
0.000000001
43
0.0000000001
44
0.0000000001
40
0
40
0
40
0
40
1
40
1
40
1
10
-0.24087799348579297
20
-0.94597235055928652
30
0
10
-0.29238951959358106
20
-0.82646682592397158
30
0
10
-0.28620851793037305
20
-0.6822361025429291
30
0
0
SPLINE
5
301
100
AcDbEntity
8
0
100
AcDbSpline
70
0
71
2
72
6
73
3
74
0
42
0.000000001
43
0.0000000001
44
0.0000000001
40
0
40
0
40
0
40
1
40
1
40
1
10
-0.28620851793037305
20
-0.6822361025429291
30
0
10
-0.28002632417426954
20
-0.53594484659200137
30
0
10
-0.23160708703742872
20
-0.42365088792806094
30
0
0
SPLINE
5
302
100
AcDbEntity
8
0
100
AcDbSpline
70
0
71
2
72
6
73
3
74
0
42
0.000000001
43
0.0000000001
44
0.0000000001
40
0
40
0
40
0
40
1
40
1
40
1
10
-0.23160708703742872
20
-0.42365088792806094
30
0
10
-0.18318665780769239
20
-0.31135692926412051
30
0
10
-0.10385883607612501
20
-0.2268789682007355
30
0
0
SPLINE
5
303
100
AcDbEntity
8
0
100
AcDbSpline
70
0
71
2
72
6
73
3
74
0
42
0.000000001
43
0.0000000001
44
0.0000000001
40
0
40
0
40
0
40
1
40
1
40
1
10
-0.10385883607612501
20
-0.2268789682007355
30
0
10
-0.02453220643745313
20
-0.14240100713735049
30
0
10
0.080549590208665034
20
-0.085739043674520898
30
0
0
SPLINE
5
304
100
AcDbEntity
8
0
100
AcDbSpline
70
0
71
2
72
6
73
3
74
0
42
0.000000001
43
0.0000000001
44
0.0000000001
40
0
40
0
40
0
40
1
40
1
40
1
10
0.080549590208665034
20
-0.085739043674520898
30
0
10
0.18563257894767871
20
-0.029076782188467432
30
0
10
0.30410753927482714
20
0.005950781383461945
30
0
0
SPLINE
5
305
100
AcDbEntity
8
0
100
AcDbSpline
70
0
71
2
72
6
73
3
74
0
42
0.000000001
43
0.0000000001
44
0.0000000001
40
0
40
0
40
0
40
1
40
1
40
1
10
0.30410753927482714
20
0.005950781383461945
30
0
10
0.42258249960197558
20
0.040978046932168
30
0
10
0.55033075056327929
20
0.056431743183083527
30
0
0
SPLINE
5
306
100
AcDbEntity
8
0
100
AcDbSpline
70
0
71
2
72
6
73
3
74
0
42
0.000000001
43
0.0000000001
44
0.0000000001
40
0
40
0
40
0
40
1
40
1
40
1
10
0.55033075056327929
20
0.056431743183083527
30
0
10
0.67807780943168749
20
0.0718848433875513
30
0
10
0.80170380316032519
20
0.0718848433875513
30
0
0
LINE
5
307
100
AcDbEntity
8
0
100
AcDbLine
10
0.80170380316032519
20
0.0718848433875513
30
0
11
1.0736821814562236
21
0.067763778247780571
31
0
0
LINE
5
308
100
AcDbEntity
8
0
100
AcDbLine
10
1.0736821814562236
20
0.067763778247780238
30
0
11
1.1025284453417219
21
0.2016924348258442
31
0
0
SPLINE
5
309
100
AcDbEntity
8
0
100
AcDbSpline
70
0
71
2
72
6
73
3
74
0
42
0.000000001
43
0.0000000001
44
0.0000000001
40
0
40
0
40
0
40
1
40
1
40
1
10
1.1025284453417217
20
0.2016924348258442
30
0
10
1.1148904486681377
20
0.26968702939981881
30
0
10
1.1087094470049297
20
0.33047005800241891
30
0
0
SPLINE
5
310
100
AcDbEntity
8
0
100
AcDbSpline
70
0
71
2
72
6
73
3
74
0
42
0.000000001
43
0.0000000001
44
0.0000000001
40
0
40
0
40
0
40
1
40
1
40
1
10
1.1087094470049297
20
0.33047005800241891
30
0
10
1.1025284453417217
20
0.39125293759340707
30
0
10
1.0747121497179424
20
0.43658271697992745
30
0
0
SPLINE
5
311
100
AcDbEntity
8
0
100
AcDbSpline
70
0
71
2
72
6
73
3
74
0
42
0.000000001
43
0.0000000001
44
0.0000000001
40
0
40
0
40
0
40
1
40
1
40
1
10
1.0747121497179424
20
0.43658271697992745
30
0
10
1.0468958540941631
20
0.48191234735483618
30
0
10
0.99641548834098925
20
0.50972819594377961
30
0
0
SPLINE
5
312
100
AcDbEntity
8
0
100
AcDbSpline
70
0
71
2
72
6
73
3
74
0
42
0.000000001
43
0.0000000001
44
0.0000000001
40
0
40
0
40
0
40
1
40
1
40
1
10
0.99641548834098925
20
0.50972819594377961
30
0
10
0.94593512258781542
20
0.53754419354433502
30
0
10
0.8696983977342998
20
0.53960457710260834
30
0
0
SPLINE
5
313
100
AcDbEntity
8
0
100
AcDbSpline
70
0
71
2
72
6
73
3
74
0
42
0.000000001
43
0.0000000001
44
0.0000000001
40
0
40
0
40
0
40
1
40
1
40
1
10
0.8696983977342998
20
0.53960457710260834
30
0
10
0.73370920858635058
20
0.54372549323076691
30
0
10
0.63892947874321093
20
0.47264039782518863
30
0
0
SPLINE
5
314
100
AcDbEntity
8
0
100
AcDbSpline
70
0
71
2
72
6
73
3
74
0
42
0.000000001
43
0.0000000001
44
0.0000000001
40
0
40
0
40
0
40
1
40
1
40
1
10
0.63892947874321093
20
0.47264039782518863
30
0
10
0.54414855680717578
20
0.40155515340799808
30
0
10
0.51736342153801074
20
0.26762664584154605
30
0
0
LINE
5
315
100
AcDbEntity
8
0
100
AcDbLine
10
0.51736342153801074
20
0.26762664584154605
30
0
11
-0.0657416657422627
21
0.2655661132716613
31
0
0
SPLINE
5
316
100
AcDbEntity
8
0
100
AcDbSpline
70
0
71
2
72
6
73
3
74
0
42
0.000000001
43
0.0000000001
44
0.0000000001
40
0
40
0
40
0
40
1
40
1
40
1
10
-0.0657416657422627
20
0.26556611327166135
30
0
10
-0.057499535462721685
20
0.45100569991106565
30
0
10
0.035220257856980464
20
0.58699474004740293
30
0
0
SPLINE
5
317
100
AcDbEntity
8
0
100
AcDbSpline
70
0
71
2
72
6
73
3
74
0
42
0.000000001
43
0.0000000001
44
0.0000000001
40
0
40
0
40
0
40
1
40
1
40
1
10
0.035220257856980464
20
0.58699474004740293
30
0
10
0.12794005117668261
20
0.72298378018373999
30
0
10
0.26908027372612109
20
0.81158265737528357
30
0
0
SPLINE
5
318
100
AcDbEntity
8
0
100
AcDbSpline
70
0
71
2
72
6
73
3
74
0
42
0.000000001
43
0.0000000001
44
0.0000000001
40
0
40
0
40
0
40
1
40
1
40
1
10
0.26908027372612109
20
0.81158265737528357
30
0
10
0.41022049627555957
20
0.90018153456682681
30
0
10
0.58123695097221484
20
0.940360131540246
30
0
0
SPLINE
5
319
100
AcDbEntity
8
0
100
AcDbSpline
70
0
71
2
72
6
73
3
74
0
42
0.000000001
43
0.0000000001
44
0.0000000001
40
0
40
0
40
0
40
1
40
1
40
1
10
0.58123695097221484
20
0.940360131540246
30
0
10
0.75225340566887011
20
0.98053872851366486
30
0
10
0.91708885870231738
20
0.97847834495539154
30
0
0
SPLINE
5
320
100
AcDbEntity
8
0
100
AcDbSpline
70
0
71
2
72
6
73
3
74
0
42
0.000000001
43
0.0000000001
44
0.0000000001
40
0
40
0
40
0
40
1
40
1
40
1
10
0.91708885870231738
20
0.97847834495539154
30
0
10
1.0922263785387432
20
0.97435742882723275
30
0
10
1.2416075392748271
20
0.92078596619600717
30
0
0
SPLINE
5
321
100
AcDbEntity
8
0
100
AcDbSpline
70
0
71
2
72
6
73
3
74
0
42
0.000000001
43
0.0000000001
44
0.0000000001
40
0
40
0
40
0
40
1
40
1
40
1
10
1.2416075392748271
20
0.92078596619600717
30
0
10
1.3909898921038066
20
0.86721450356478136
30
0
10
1.4960716887499248
20
0.76728329328531664
30
0
0
SPLINE
5
322
100
AcDbEntity
8
0
100
AcDbSpline
70
0
71
2
72
6
73
3
74
0
42
0.000000001
43
0.0000000001
44
0.0000000001
40
0
40
0
40
0
40
1
40
1
40
1
10
1.4960716887499248
20
0.76728329328531664
30
0
10
1.6011546774889385
20
0.66735193399423998
30
0
10
1.6547261401201641
20
0.52312106160158556
30
0
0
SPLINE
5
323
100
AcDbEntity
8
0
100
AcDbSpline
70
0
71
2
72
6
73
3
74
0
42
0.000000001
43
0.0000000001
44
0.0000000001
40
0
40
0
40
0
40
1
40
1
40
1
10
1.6547261401201641
20
0.52312106160158556
30
0
10
1.7082976027513896
20
0.37889033822054302
30
0
10
1.6897534056688701
20
0.19345090059275039
30
0
0
LINE
5
324
100
AcDbEntity
8
0
100
AcDbLine
10
1.6897534056688701
20
0.19345090059275039
30
0
11
1.5372811480547339
21
-0.75229122968679052
31
0
0
SPLINE
5
325
100
AcDbEntity
8
0
100
AcDbSpline
70
0
71
2
72
6
73
3
74
0
42
0.000000001
43
0.0000000001
44
0.0000000001
40
0
40
0
40
0
40
1
40
1
40
1
10
1.5372811480547344
20
-0.75229122968679007
30
0
10
1.5269790812517559
20
-0.81410422655110892
30
0
10
1.5187369509722148
20
-0.8779780540085369
30
0
0
SPLINE
5
326
100
AcDbEntity
8
0
100
AcDbSpline
70
0
71
2
72
6
73
3
74
0
42
0.000000001
43
0.0000000001
44
0.0000000001
40
0
40
0
40
0
40
1
40
1
40
1
10
1.5187369509722148
20
-0.8779780540085369
30
0
10
1.5104948206926738
20
-0.941851583442741
30
0
10
1.5084348841692363
20
-1.0057251128769451
30
0
0
SPLINE
5
327
100
AcDbEntity
8
0
100
AcDbSpline
70
0
71
2
72
6
73
3
74
0
42
0.000000001
43
0.0000000001
44
0.0000000001
40
0
40
0
40
0
40
1
40
1
40
1
10
1.5084348841692363
20
-1.0057251128769451
30
0
10
1.5063737555529033
20
-1.0695989403343731
30
0
10
1.5135859175707256
20
-1.1324422034836346
30
0
0
SPLINE
5
328
100
AcDbEntity
8
0
100
AcDbSpline
70
0
71
2
72
6
73
3
74
0
42
0.000000001
43
0.0000000001
44
0.0000000001
40
0
40
0
40
0
40
1
40
1
40
1
10
1.5135859175707256
20
-1.1324422034836346
30
0
10
1.5207980795885478
20
-1.1952857646561199
30
0
10
1.5434621497179424
20
-1.2529779944038921
30
0
0
LINE
5
329
100
AcDbEntity
8
0
100
AcDbLine
10
1.5434621497179424
20
-1.2529779944038921
30
0
11
1.5414022131945049
21
-1.2921263250923687
31
0
0
LINE
5
330
100
AcDbEntity
8
0
100
AcDbLine
10
1.5414022131945049
20
-1.2921263250923687
30
0
11
0.97066032133354296
21
-1.2921263250923682
31
0
0
SPLINE
5
331
100
AcDbEntity
8
0
100
AcDbSpline
70
0
71
2
72
6
73
3
74
0
42
0.000000001
43
0.0000000001
44
0.0000000001
40
0
40
0
40
0
40
1
40
1
40
1
10
0.52354442320121874
20
-0.88209882112508298
30
0
10
0.65541254720939746
20
-0.88621958824162961
30
0
10
0.76770650587333789
20
-0.82440659137731076
30
0
0
SPLINE
5
332
100
AcDbEntity
8
0
100
AcDbSpline
70
0
71
2
72
6
73
3
74
0
42
0.000000001
43
0.0000000001
44
0.0000000001
40
0
40
0
40
0
40
1
40
1
40
1
10
0.76770650587333789
20
-0.82440659137731076
30
0
10
0.88000046453727832
20
-0.76259329648976804
30
0
10
0.96241819105400195
20
-0.66369220348363456
30
0
0
LINE
5
333
100
AcDbEntity
8
0
100
AcDbLine
10
0.96241819105400195
20
-0.66369220348363456
30
0
11
1.0345338507677473
21
-0.278389898262077
31
0
0
LINE
5
334
100
AcDbEntity
8
0
100
AcDbLine
10
1.0345338507677471
20
-0.27838989826207694
30
0
11
0.83261000356926074
21
-0.2763296637154154
31
0
0
SPLINE
5
335
100
AcDbEntity
8
0
100
AcDbSpline
70
0
71
2
72
6
73
3
74
0
42
0.000000001
43
0.0000000001
44
0.0000000001
40
0
40
0
40
0
40
1
40
1
40
1
10
0.83261000356926074
20
-0.27632966371541501
30
0
10
0.7440112753893291
20
-0.27838989826207639
30
0
10
0.65541254720939746
20
-0.29796436162953854
30
0
0
SPLINE
5
336
100
AcDbEntity
8
0
100
AcDbSpline
70
0
71
2
72
6
73
3
74
0
42
0.000000001
43
0.0000000001
44
0.0000000001
40
0
40
0
40
0
40
1
40
1
40
1
10
0.65541254720939746
20
-0.29796436162953854
30
0
10
0.56681381902946582
20
-0.31753852697377682
30
0
10
0.49366819105400195
20
-0.36080762477880002
30
0
0
SPLINE
5
337
100
AcDbEntity
8
0
100
AcDbSpline
70
0
71
2
72
6
73
3
74
0
42
0.000000001
43
0.0000000001
44
0.0000000001
40
0
40
0
40
0
40
1
40
1
40
1
10
0.49366819105400195
20
-0.36080762477880002
30
0
10
0.42052256307853808
20
-0.40407672258382321
30
0
10
0.3690122290636455
20
-0.47207131715779782
30
0
0
SPLINE
5
338
100
AcDbEntity
8
0
100
AcDbSpline
70
0
71
2
72
6
73
3
74
0
42
0.000000001
43
0.0000000001
44
0.0000000001
40
0
40
0
40
0
40
1
40
1
40
1
10
0.3690122290636455
20
-0.47207131715779782
30
0
10
0.31750070295585742
20
-0.54006591173177243
30
0
10
0.30513750753654589
20
-0.63896700473790646
30
0
0
SPLINE
5
339
100
AcDbEntity
8
0
100
AcDbSpline
70
0
71
2
72
6
73
3
74
0
42
0.000000001
43
0.0000000001
44
0.0000000001
40
0
40
0
40
0
40
1
40
1
40
1
10
0.30513750753654589
20
-0.63896700473790646
30
0
10
0.28865443907035937
20
-0.75023069711690427
30
0
10
0.35149800024284472
20
-0.81513449283605099
30
0
0
SPLINE
5
340
100
AcDbEntity
8
0
100
AcDbSpline
70
0
71
2
72
6
73
3
74
0
42
0.000000001
43
0.0000000001
44
0.0000000001
40
0
40
0
40
0
40
1
40
1
40
1
10
0.35149800024284472
20
-0.81513449283605099
30
0
10
0.41434156141533007
20
-0.88003828855519772
30
0
10
0.52354442320121874
20
-0.88209882112508298
30
0
0
LINE
5
341
100
AcDbEntity
8
0
100
AcDbLine
10
3.0805514975573001
20
1.4853464093589235
30
0
11
2.983710639097827
21
0.93726948169702784
31
0
0
LINE
5
342
100
AcDbEntity
8
0
100
AcDbLine
10
2.9837106390978252
20
0.93726948169702817
30
0
11
3.3545898123766338
21
0.93726948169702784
31
0
0
LINE
5
343
100
AcDbEntity
8
0
100
AcDbLine
10
3.3545898123766338
20
0.93726948169702784
30
0
11
3.2783542796160132
21
0.50045624641413
31
0
0
LINE
5
344
100
AcDbEntity
8
0
100
AcDbLine
10
3.2783542796160137
20
0.50045624641412989
30
0
11
2.9074751063372051
21
0.50045624641413022
31
0
0
LINE
5
345
100
AcDbEntity
8
0
100
AcDbLine
10
2.9074751063372051
20
0.50045624641413022
30
0
11
2.7179144545580298
21
-0.61630204053884208
31
0
0
SPLINE
5
346
100
AcDbEntity
8
0
100
AcDbSpline
70
0
71
2
72
6
73
3
74
0
42
0.000000001
43
0.0000000001
44
0.0000000001
40
0
40
0
40
0
40
1
40
1
40
1
10
2.7179144545580303
20
-0.61630204053884197
30
0
10
2.7055512591387187
20
-0.72138443323140788
30
0
10
2.7343975230242168
20
-0.77701642843251872
30
0
0
SPLINE
5
347
100
AcDbEntity
8
0
100
AcDbSpline
70
0
71
2
72
6
73
3
74
0
42
0.000000001
43
0.0000000001
44
0.0000000001
40
0
40
0
40
0
40
1
40
1
40
1
10
2.7343975230242168
20
-0.77701642843251872
30
0
10
2.7632437869097148
20
-0.83264842363362956
30
0
10
2.8745077773119365
20
-0.83676919075017619
30
0
0
SPLINE
5
348
100
AcDbEntity
8
0
100
AcDbSpline
70
0
71
2
72
6
73
3
74
0
42
0.000000001
43
0.0000000001
44
0.0000000001
40
0
40
0
40
0
40
1
40
1
40
1
10
2.8745077773119365
20
-0.83676919075017619
30
0
10
2.9198371096636211
20
-0.84088995786672338
30
0
10
2.9631065054918682
20
-0.83573892446523412
30
0
0
SPLINE
5
349
100
AcDbEntity
8
0
100
AcDbSpline
70
0
71
2
72
6
73
3
74
0
42
0.000000001
43
0.0000000001
44
0.0000000001
40
0
40
0
40
0
40
1
40
1
40
1
10
2.9631065054918682
20
-0.83573892446523412
30
0
10
3.0063759013201152
20
-0.83058789106374487
30
0
10
3.0517052336717998
20
-0.82646682592397436
30
0
0
LINE
5
350
100
AcDbEntity
8
0
100
AcDbLine
10
3.0517052336717998
20
-0.82646682592397436
30
0
11
3.0104969664598853
21
-1.2818242582893919
31
0
0
SPLINE
5
351
100
AcDbEntity
8
0
100
AcDbSpline
70
0
71
2
72
6
73
3
74
0
42
0.000000001
43
0.0000000001
44
0.0000000001
40
0
40
0
40
0
40
1
40
1
40
1
10
3.0104969664598857
20
-1.2818242582893919
30
0
10
2.9301391764665996
20
-1.3086099896050047
30
0
10
2.8466914816881572
20
-1.3199423226929252
30
0
0
SPLINE
5
352
100
AcDbEntity
8
0
100
AcDbSpline
70
0
71
2
72
6
73
3
74
0
42
0.000000001
43
0.0000000001
44
0.0000000001
40
0
40
0
40
0
40
1
40
1
40
1
10
2.8466914816881572
20
-1.3199423226929252
30
0
10
2.7632437869097148
20
-1.3312746557808464
30
0
10
2.6767049952532207
20
-1.3292141232109611
30
0
0
SPLINE
5
353
100
AcDbEntity
8
0
100
AcDbSpline
70
0
71
2
72
6
73
3
74
0
42
0.000000001
43
0.0000000001
44
0.0000000001
40
0
40
0
40
0
40
1
40
1
40
1
10
2.6767049952532207
20
-1.3292141232109611
30
0
10
2.5283538027788555
20
-1.3271538886642997
30
0
10
2.4201809092546855
20
-1.2787334594345634
30
0
0
SPLINE
5
354
100
AcDbEntity
8
0
100
AcDbSpline
70
0
71
2
72
6
73
3
74
0
42
0.000000001
43
0.0000000001
44
0.0000000001
40
0
40
0
40
0
40
1
40
1
40
1
10
2.4201809092546855
20
-1.2787334594345634
30
0
10
2.3120080157305156
20
-1.2303130302048271
30
0
10
2.2450433894182598
20
-1.1437745365715568
30
0
0
SPLINE
5
355
100
AcDbEntity
8
0
100
AcDbSpline
70
0
71
2
72
6
73
3
74
0
42
0.000000001
43
0.0000000001
44
0.0000000001
40
0
40
0
40
0
40
1
40
1
40
1
10
2.2450433894182598
20
-1.1437745365715568
30
0
10
2.1780787631060039
20
-1.0572363409615098
30
0
10
2.1502624674822246
20
-0.93876078458791368
30
0
0
SPLINE
5
356
100
AcDbEntity
8
0
100
AcDbSpline
70
0
71
2
72
6
73
3
74
0
42
0.000000001
43
0.0000000001
44
0.0000000001
40
0
40
0
40
0
40
1
40
1
40
1
10
2.1502624674822246
20
-0.93876078458791368
30
0
10
2.1224473639513408
20
-0.82028552623754136
30
0
10
2.1348093672777568
20
-0.67605480285649888
30
0
0
LINE
5
357
100
AcDbEntity
8
0
100
AcDbLine
10
2.1348093672777568
20
-0.67605480285649888
30
0
11
2.3264311476732655
21
0.50045624641413089
31
0
0
LINE
5
358
100
AcDbEntity
8
0
100
AcDbLine
10
2.3264311476732646
20
0.50045624641413067
30
0
11
2.0111833735491191
21
0.500456246414131
31
0
0
LINE
5
359
100
AcDbEntity
8
0
100
AcDbLine
10
2.0111833735491191
20
0.500456246414131
30
0
11
2.0874200984026352
21
0.93726948169702895
31
0
0
LINE
5
360
100
AcDbEntity
8
0
100
AcDbLine
10
2.0874200984026348
20
0.93726948169702862
30
0
11
2.4026666804338848
21
0.93726948169702839
31
0
0
LINE
5
361
100
AcDbEntity
8
0
100
AcDbLine
10
2.4026666804338848
20
0.93726948169702839
30
0
11
2.4974476023699204
21
1.4853464093589241
31
0
0
LINE
5
362
100
AcDbEntity
8
0
100
AcDbLine
10
2.4974476023699221
20
1.4853464093589241
30
0
11
3.0805514975573001
21
1.4853464093589235
31
0
0
SPLINE
5
363
100
AcDbEntity
8
0
100
AcDbSpline
70
0
71
2
72
6
73
3
74
0
42
0.000000001
43
0.0000000001
44
0.0000000001
40
0
40
0
40
0
40
1
40
1
40
1
10
4.3394790812517563
20
-1.3333351883507332
30
0
10
4.1087101622606674
20
-1.3292141232109622
30
0
10
3.9284216090227519
20
-1.2447361621475772
30
0
0
SPLINE
5
364
100
AcDbEntity
8
0
100
AcDbSpline
70
0
71
2
72
6
73
3
74
0
42
0.000000001
43
0.0000000001
44
0.0000000001
40
0
40
0
40
0
40
1
40
1
40
1
10
3.9284216090227519
20
-1.2447361621475772
30
0
10
3.7481330557848369
20
-1.1602582010841922
30
0
10
3.6265669985796367
20
-1.0160274777031497
30
0
0
SPLINE
5
365
100
AcDbEntity
8
0
100
AcDbSpline
70
0
71
2
72
6
73
3
74
0
42
0.000000001
43
0.0000000001
44
0.0000000001
40
0
40
0
40
0
40
1
40
1
40
1
10
3.6265669985796367
20
-1.0160274777031497
30
0
10
3.5050009413744365
20
-0.87179675432210668
30
0
10
3.4493683501268779
20
-0.67708506914144262
30
0
0
SPLINE
5
366
100
AcDbEntity
8
0
100
AcDbSpline
70
0
71
2
72
6
73
3
74
0
42
0.000000001
43
0.0000000001
44
0.0000000001
40
0
40
0
40
0
40
1
40
1
40
1
10
3.4493683501268779
20
-0.67708506914144262
30
0
10
3.3937369509722148
20
-0.48237338396077856
30
0
10
3.4143410845781719
20
-0.25984599920278295
30
0
0
LINE
5
367
100
AcDbEntity
8
0
100
AcDbLine
10
3.4143410845781719
20
-0.25984599920278295
30
0
11
3.4225832148577129
21
-0.17742827268605932
31
0
0
SPLINE
5
368
100
AcDbEntity
8
0
100
AcDbSpline
70
0
71
2
72
6
73
3
74
0
42
0.000000001
43
0.0000000001
44
0.0000000001
40
0
40
0
40
0
40
1
40
1
40
1
10
3.4225832148577129
20
-0.17742827268605932
30
0
10
3.4473084136034404
20
0.055401178874914803
30
0
10
3.5379682703997051
20
0.26762649682993161
30
0
0
SPLINE
5
369
100
AcDbEntity
8
0
100
AcDbSpline
70
0
71
2
72
6
73
3
74
0
42
0.000000001
43
0.0000000001
44
0.0000000001
40
0
40
0
40
0
40
1
40
1
40
1
10
3.5379682703997051
20
0.26762649682993161
30
0
10
3.6286269351030742
20
0.4798518147849487
30
0
10
3.7780092879320537
20
0.63953593639368256
30
0
0
SPLINE
5
370
100
AcDbEntity
8
0
100
AcDbSpline
70
0
71
2
72
6
73
3
74
0
42
0.000000001
43
0.0000000001
44
0.0000000001
40
0
40
0
40
0
40
1
40
1
40
1
10
3.7780092879320537
20
0.63953593639368256
30
0
10
3.9273904486681377
20
0.79922005800241669
30
0
10
4.131374232390062
20
0.89193970231050668
30
0
0
SPLINE
5
371
100
AcDbEntity
8
0
100
AcDbSpline
70
0
71
2
72
6
73
3
74
0
42
0.000000001
43
0.0000000001
44
0.0000000001
40
0
40
0
40
0
40
1
40
1
40
1
10
4.131374232390062
20
0.89193970231050668
30
0
10
4.3353580161119858
20
0.98465949563020883
30
0
10
4.5846711321855942
20
0.97847819594377661
30
0
0
SPLINE
5
372
100
AcDbEntity
8
0
100
AcDbSpline
70
0
71
2
72
6
73
3
74
0
42
0.000000001
43
0.0000000001
44
0.0000000001
40
0
40
0
40
0
40
1
40
1
40
1
10
4.5846711321855942
20
0.97847819594377661
30
0
10
4.8195611163164536
20
0.97435742882722964
30
0
10
4.9843965693499008
20
0.88266775278085818
30
0
0
SPLINE
5
373
100
AcDbEntity
8
0
100
AcDbSpline
70
0
71
2
72
6
73
3
74
0
42
0.000000001
43
0.0000000001
44
0.0000000001
40
0
40
0
40
0
40
1
40
1
40
1
10
4.9843965693499008
20
0.88266775278085818
30
0
10
5.1492320223833481
20
0.79097822574609844
30
0
10
5.2481328173662583
20
0.63953593639368145
30
0
0
SPLINE
5
374
100
AcDbEntity
8
0
100
AcDbSpline
70
0
71
2
72
6
73
3
74
0
42
0.000000001
43
0.0000000001
44
0.0000000001
40
0
40
0
40
0
40
1
40
1
40
1
10
5.2481328173662583
20
0.63953593639368145
30
0
10
5.3470348044420657
20
0.48809364704126446
30
0
10
5.3820608778978762
20
0.2913215783023268
30
0
0
SPLINE
5
375
100
AcDbEntity
8
0
100
AcDbSpline
70
0
71
2
72
6
73
3
74
0
42
0.000000001
43
0.0000000001
44
0.0000000001
40
0
40
0
40
0
40
1
40
1
40
1
10
5.3820608778978762
20
0.2913215783023268
30
0
10
5.4170893355394778
20
0.0945495095633897
30
0
10
5.3923629447008548
20
-0.11767580839162739
30
0
0
LINE
5
376
100
AcDbEntity
8
0
100
AcDbLine
10
5.3923629447008548
20
-0.11767580839162739
30
0
11
5.3532146140123782
21
-0.37110969158178242
31
0
0
LINE
5
377
100
AcDbEntity
8
0
100
AcDbLine
10
5.3532146140123782
20
-0.37110969158178242
30
0
11
3.9892040415789065
21
-0.37110969158178131
31
0
0
SPLINE
5
378
100
AcDbEntity
8
0
100
AcDbSpline
70
0
71
2
72
6
73
3
74
0
42
0.000000001
43
0.0000000001
44
0.0000000001
40
0
40
0
40
0
40
1
40
1
40
1
10
3.9892040415789043
20
-0.37110969158178131
30
0
10
3.9830230399156963
20
-0.47001078458791534
30
0
10
4.0056871100450913
20
-0.55654927822118561
30
0
0
SPLINE
5
379
100
AcDbEntity
8
0
100
AcDbSpline
70
0
71
2
72
6
73
3
74
0
42
0.000000001
43
0.0000000001
44
0.0000000001
40
0
40
0
40
0
40
1
40
1
40
1
10
4.0056871100450913
20
-0.55654927822118561
30
0
10
4.0283523722673813
20
-0.64308777185445587
30
0
10
4.0788327380205551
20
-0.7079915675736026
30
0
0
SPLINE
5
380
100
AcDbEntity
8
0
100
AcDbSpline
70
0
71
2
72
6
73
3
74
0
42
0.000000001
43
0.0000000001
44
0.0000000001
40
0
40
0
40
0
40
1
40
1
40
1
10
4.0788327380205551
20
-0.7079915675736026
30
0
10
4.1293142958666245
20
-0.77289536329274933
30
0
10
4.2076109572435776
20
-0.81101372571950714
30
0
0
SPLINE
5
381
100
AcDbEntity
8
0
100
AcDbSpline
70
0
71
2
72
6
73
3
74
0
42
0.000000001
43
0.0000000001
44
0.0000000001
40
0
40
0
40
0
40
1
40
1
40
1
10
4.2076109572435776
20
-0.81101372571950714
30
0
10
4.2859076186205307
20
-0.84913179012304163
30
0
10
4.3909894152666489
20
-0.85119232269292688
30
0
0
SPLINE
5
382
100
AcDbEntity
8
0
100
AcDbSpline
70
0
71
2
72
6
73
3
74
0
42
0.000000001
43
0.0000000001
44
0.0000000001
40
0
40
0
40
0
40
1
40
1
40
1
10
4.3909894152666489
20
-0.85119232269292688
30
0
10
4.5578859969164291
20
-0.85737362237935877
30
0
10
4.6979950591112534
20
-0.79040929409032679
30
0
0
SPLINE
5
383
100
AcDbEntity
8
0
100
AcDbSpline
70
0
71
2
72
6
73
3
74
0
42
0.000000001
43
0.0000000001
44
0.0000000001
40
0
40
0
40
0
40
1
40
1
40
1
10
4.6979950591112534
20
-0.79040929409032679
30
0
10
4.8381053133989731
20
-0.7234449658012948
30
0
10
4.9514292403246323
20
-0.60599997373586567
30
0
0
LINE
5
384
100
AcDbEntity
8
0
100
AcDbLine
10
4.9514292403246323
20
-0.60599997373586567
30
0
11
5.2151654883409897
21
-0.93773081632619792
31
0
0
SPLINE
5
385
100
AcDbEntity
8
0
100
AcDbSpline
70
0
71
2
72
6
73
3
74
0
42
0.000000001
43
0.0000000001
44
0.0000000001
40
0
40
0
40
0
40
1
40
1
40
1
10
5.2151654883409897
20
-0.9377308163261977
30
0
10
5.1451109572435776
20
-1.0428132090187636
30
0
10
5.0451790019060532
20
-1.1190493378258315
30
0
0
SPLINE
5
386
100
AcDbEntity
8
0
100
AcDbSpline
70
0
71
2
72
6
73
3
74
0
42
0.000000001
43
0.0000000001
44
0.0000000001
40
0
40
0
40
0
40
1
40
1
40
1
10
5.0451790019060532
20
-1.1190493378258315
30
0
10
4.9452482386614243
20
-1.1952857646561232
30
0
10
4.8288332148577133
20
-1.243705895862635
30
0
0
SPLINE
5
387
100
AcDbEntity
8
0
100
AcDbSpline
70
0
71
2
72
6
73
3
74
0
42
0.000000001
43
0.0000000001
44
0.0000000001
40
0
40
0
40
0
40
1
40
1
40
1
10
4.8288332148577133
20
-1.243705895862635
30
0
10
4.7124181910540024
20
-1.2921263250923714
30
0
10
4.5867310687090317
20
-1.3137610230064949
30
0
0
SPLINE
5
388
100
AcDbEntity
8
0
100
AcDbSpline
70
0
71
2
72
6
73
3
74
0
42
0.000000001
43
0.0000000001
44
0.0000000001
40
0
40
0
40
0
40
1
40
1
40
1
10
4.5867310687090317
20
-1.3137610230064949
30
0
10
4.4610451384569565
20
-1.3353954228973945
30
0
10
4.3394790812517563
20
-1.3333351883507332
30
0
0
SPLINE
5
389
100
AcDbEntity
8
0
100
AcDbSpline
70
0
71
2
72
6
73
3
74
0
42
0.000000001
43
0.0000000001
44
0.0000000001
40
0
40
0
40
0
40
1
40
1
40
1
10
4.5537649317766586
20
0.50045624641412878
30
0
10
4.4466220065142075
20
0.5025166299724021
30
0
10
4.3652342482592026
20
0.46336829928392581
30
0
0
SPLINE
5
390
100
AcDbEntity
8
0
100
AcDbSpline
70
0
71
2
72
6
73
3
74
0
42
0.000000001
43
0.0000000001
44
0.0000000001
40
0
40
0
40
0
40
1
40
1
40
1
10
4.3652342482592026
20
0.46336829928392581
30
0
10
4.2838464900041977
20
0.42421996859544925
30
0
10
4.2210029288317124
20
0.35725564030641727
30
0
0
SPLINE
5
391
100
AcDbEntity
8
0
100
AcDbSpline
70
0
71
2
72
6
73
3
74
0
42
0.000000001
43
0.0000000001
44
0.0000000001
40
0
40
0
40
0
40
1
40
1
40
1
10
4.2210029288317124
20
0.35725564030641727
30
0
10
4.1581605597521225
20
0.29029131201738528
30
0
10
4.1128300353075424
20
0.20478293565744599
30
0
0
SPLINE
5
392
100
AcDbEntity
8
0
100
AcDbSpline
70
0
71
2
72
6
73
3
74
0
42
0.000000001
43
0.0000000001
44
0.0000000001
40
0
40
0
40
0
40
1
40
1
40
1
10
4.1128300353075424
20
0.20478293565744599
30
0
10
4.0675007029558579
20
0.11927470830911835
30
0
10
4.0324734374071518
20
0.032736512699071962
30
0
0
LINE
5
393
100
AcDbEntity
8
0
100
AcDbLine
10
4.0324734374071518
20
0.032736512699071962
30
0
11
4.8339842482592026
21
0.032736512699071296
31
0
0
LINE
5
394
100
AcDbEntity
8
0
100
AcDbLine
10
4.8339842482592026
20
0.032736512699071407
30
0
11
4.8463474436785141
21
0.08836820987695837
31
0
0
SPLINE
5
395
100
AcDbEntity
8
0
100
AcDbSpline
70
0
71
2
72
6
73
3
74
0
42
0.000000001
43
0.0000000001
44
0.0000000001
40
0
40
0
40
0
40
1
40
1
40
1
10
4.8463474436785141
20
0.08836820987695837
30
0
10
4.8607705756212631
20
0.170785936393682
30
0
10
4.8514984770800034
20
0.24496168164247628
30
0
0
SPLINE
5
396
100
AcDbEntity
8
0
100
AcDbSpline
70
0
71
2
72
6
73
3
74
0
42
0.000000001
43
0.0000000001
44
0.0000000001
40
0
40
0
40
0
40
1
40
1
40
1
10
4.8514984770800034
20
0.24496168164247628
30
0
10
4.8422263785387436
20
0.31913757590288278
30
0
10
4.8061679526354233
20
0.37476942209238168
30
0
0
SPLINE
5
397
100
AcDbEntity
8
0
100
AcDbSpline
70
0
71
2
72
6
73
3
74
0
42
0.000000001
43
0.0000000001
44
0.0000000001
40
0
40
0
40
0
40
1
40
1
40
1
10
4.8061679526354233
20
0.37476942209238168
30
0
10
4.7701107188249985
20
0.43040126828188058
30
0
10
4.7072671576525131
20
0.46336829928392553
30
0
0
SPLINE
5
398
100
AcDbEntity
8
0
100
AcDbSpline
70
0
71
2
72
6
73
3
74
0
42
0.000000001
43
0.0000000001
44
0.0000000001
40
0
40
0
40
0
40
1
40
1
40
1
10
4.7072671576525131
20
0.46336829928392553
30
0
10
4.6444235964800278
20
0.49633533028597021
30
0
10
4.5537649317766586
20
0.50045624641412878
30
0
0
SPLINE
5
399
100
AcDbEntity
8
0
100
AcDbSpline
70
0
71
2
72
6
73
3
74
0
42
0.000000001
43
0.0000000001
44
0.0000000001
40
0
40
0
40
0
40
1
40
1
40
1
10
7.0654414816881594
20
0.3788903382205383
30
0
10
7.0180534049059329
20
0.38713202146524378
30
0
10
6.9686006232286868
20
0.39331332115167567
30
0
0
SPLINE
5
400
100
AcDbEntity
8
0
100
AcDbSpline
70
0
71
2
72
6
73
3
74
0
42
0.000000001
43
0.0000000001
44
0.0000000001
40
0
40
0
40
0
40
1
40
1
40
1
10
6.9686006232286868
20
0.39331332115167567
30
0
10
6.9191502257372317
20
0.39949462083810755
30
0
10
6.8696998282457766
20
0.39949462083810755
30
0
0
SPLINE
5
401
100
AcDbEntity
8
0
100
AcDbSpline
70
0
71
2
72
6
73
3
74
0
42
0.000000001
43
0.0000000001
44
0.0000000001
40
0
40
0
40
0
40
1
40
1
40
1
10
6.8696998282457766
20
0.39949462083810755
30
0
10
6.7151664420153079
20
0.40361553696626612
30
0
10
6.5925716086412844
20
0.34695342449182487
30
0
0
SPLINE
5
402
100
AcDbEntity
8
0
100
AcDbSpline
70
0
71
2
72
6
73
3
74
0
42
0.000000001
43
0.0000000001
44
0.0000000001
40
0
40
0
40
0
40
1
40
1
40
1
10
6.5925716086412844
20
0.34695342449182487
30
0
10
6.46997439108147
20
0.29029146102899528
30
0
10
6.3772557898546633
20
0.16666516927713371
30
0
0
LINE
5
403
100
AcDbEntity
8
0
100
AcDbLine
10
6.3772557898546633
20
0.16666516927713371
30
0
11
6.1197017355944086
21
-1.2921263250923729
31
0
0
LINE
5
404
100
AcDbEntity
8
0
100
AcDbLine
10
6.119701735594405
20
-1.2921263250923727
30
0
11
5.5386565848375691
21
-1.292126325092372
31
0
0
LINE
5
405
100
AcDbEntity
8
0
100
AcDbLine
10
5.5386565848375691
20
-1.292126325092372
30
0
11
5.9260200186754606
21
0.93726948169702595
31
0
0
LINE
5
406
100
AcDbEntity
8
0
100
AcDbLine
10
5.9260200186754641
20
0.93726948169702562
30
0
11
6.4720367117906985
21
0.93932986525529849
31
0
0
LINE
5
407
100
AcDbEntity
8
0
100
AcDbLine
10
6.4720367117906985
20
0.93932986525529838
30
0
11
6.4184640570665774
21
0.66735178498262382
31
0
0
SPLINE
5
408
100
AcDbEntity
8
0
100
AcDbSpline
70
0
71
2
72
6
73
3
74
0
42
0.000000001
43
0.0000000001
44
0.0000000001
40
0
40
0
40
0
40
1
40
1
40
1
10
6.4184640570665774
20
0.66735178498262382
30
0
10
6.4637945815111575
20
0.73534637955659843
30
0
10
6.5183948203112063
20
0.79406887558931327
30
0
0
SPLINE
5
409
100
AcDbEntity
8
0
100
AcDbSpline
70
0
71
2
72
6
73
3
74
0
42
0.000000001
43
0.0000000001
44
0.0000000001
40
0
40
0
40
0
40
1
40
1
40
1
10
6.5183948203112063
20
0.79406887558931327
30
0
10
6.5729974432970462
20
0.85279137162202812
30
0
10
6.6368697806383548
20
0.89503050116533256
30
0
0
SPLINE
5
410
100
AcDbEntity
8
0
100
AcDbSpline
70
0
71
2
72
6
73
3
74
0
42
0.000000001
43
0.0000000001
44
0.0000000001
40
0
40
0
40
0
40
1
40
1
40
1
10
6.6368697806383548
20
0.89503050116533256
30
0
10
6.7007445021654544
20
0.93726948169702506
30
0
10
6.7759512587572512
20
0.95993429688447907
30
0
0
SPLINE
5
411
100
AcDbEntity
8
0
100
AcDbSpline
70
0
71
2
72
6
73
3
74
0
42
0.000000001
43
0.0000000001
44
0.0000000001
40
0
40
0
40
0
40
1
40
1
40
1
10
6.7759512587572512
20
0.95993429688447907
30
0
10
6.8511556311632571
20
0.98259911207193329
30
0
10
6.9376944228197512
20
0.98259911207193329
30
0
0
SPLINE
5
412
100
AcDbEntity
8
0
100
AcDbSpline
70
0
71
2
72
6
73
3
74
0
42
0.000000001
43
0.0000000001
44
0.0000000001
40
0
40
0
40
0
40
1
40
1
40
1
10
6.9376944228197512
20
0.98259911207193329
30
0
10
6.9912670775438723
20
0.98259911207193329
30
0
10
7.0407174750353274
20
0.97435742882722809
30
0
0
SPLINE
5
413
100
AcDbEntity
8
0
100
AcDbSpline
70
0
71
2
72
6
73
3
74
0
42
0.000000001
43
0.0000000001
44
0.0000000001
40
0
40
0
40
0
40
1
40
1
40
1
10
7.0407174750353274
20
0.97435742882722809
30
0
10
7.0901678725267825
20
0.96611559657091062
30
0
10
7.1396182700182376
20
0.95375299719804685
30
0
0
LINE
5
414
100
AcDbEntity
8
0
100
AcDbLine
10
7.1396182700182376
20
0.95375299719804685
30
0
11
7.0654414816881594
21
0.37889033822053836
31
0
0
LINE
5
415
100
AcDbEntity
8
0
100
AcDbLine
10
9.4164036437059817
20
-0.19391193719869859
30
0
11
8.9260171576525149
21
-0.19391193719869818
31
0
0
LINE
5
416
100
AcDbEntity
8
0
100
AcDbLine
10
8.9260171576525149
20
-0.19391193719869859
30
0
11
8.7343977614427963
21
-1.2921263250923753
31
0
0
LINE
5
417
100
AcDbEntity
8
0
100
AcDbLine
10
8.7343977614427928
20
-1.2921263250923749
30
0
11
8.1306885405565623
21
-1.2921263250923742
31
0
0
LINE
5
418
100
AcDbEntity
8
0
100
AcDbLine
10
8.1306885405565623
20
-1.2921263250923742
30
0
11
8.6519788428331772
21
1.7078737941169146
31
0
0
LINE
5
419
100
AcDbEntity
8
0
100
AcDbLine
10
8.651978842833179
20
1.7078737941169146
30
0
11
9.6966217680956301
21
1.7058132615470287
31
0
0
SPLINE
5
420
100
AcDbEntity
8
0
100
AcDbSpline
70
0
71
2
72
6
73
3
74
0
42
0.000000001
43
0.0000000001
44
0.0000000001
40
0
40
0
40
0
40
1
40
1
40
1
10
9.6966217680956301
20
1.7058132615470285
30
0
10
9.9026678725267825
20
1.7016924944304819
30
0
10
10.083985201933521
20
1.6470907655143137
30
0
0
SPLINE
5
421
100
AcDbEntity
8
0
100
AcDbSpline
70
0
71
2
72
6
73
3
74
0
42
0.000000001
43
0.0000000001
44
0.0000000001
40
0
40
0
40
0
40
1
40
1
40
1
10
10.083985201933521
20
1.6470907655143137
30
0
10
10.26530491552605
20
1.592489036598145
30
0
10
10.397171847441333
20
1.4843161430739749
30
0
0
SPLINE
5
422
100
AcDbEntity
8
0
100
AcDbSpline
70
0
71
2
72
6
73
3
74
0
42
0.000000001
43
0.0000000001
44
0.0000000001
40
0
40
0
40
0
40
1
40
1
40
1
10
10.397171847441333
20
1.4843161430739749
30
0
10
10.529041163542407
20
1.3761429515265811
30
0
10
10.598065726378101
20
1.210277530231415
30
0
0
SPLINE
5
423
100
AcDbEntity
8
0
100
AcDbSpline
70
0
71
2
72
6
73
3
74
0
42
0.000000001
43
0.0000000001
44
0.0000000001
40
0
40
0
40
0
40
1
40
1
40
1
10
10.598065726378101
20
1.210277530231415
30
0
10
10.667090289213794
20
1.044412108936249
30
0
10
10.650606028654712
20
0.81776380805009485
30
0
0
SPLINE
5
424
100
AcDbEntity
8
0
100
AcDbSpline
70
0
71
2
72
6
73
3
74
0
42
0.000000001
43
0.0000000001
44
0.0000000001
40
0
40
0
40
0
40
1
40
1
40
1
10
10.650606028654712
20
0.81776380805009485
30
0
10
10.627941958525318
20
0.49633518127435328
30
0
10
10.456924311735767
20
0.28514012960427881
30
0
0
SPLINE
5
425
100
AcDbEntity
8
0
100
AcDbSpline
70
0
71
2
72
6
73
3
74
0
42
0.000000001
43
0.0000000001
44
0.0000000001
40
0
40
0
40
0
40
1
40
1
40
1
10
10.456924311735767
20
0.28514012960427881
30
0
10
10.285909049132007
20
0.073945077934204351
30
0
10
9.9912666007067141
20
-0.041439679584563405
30
0
0
LINE
5
426
100
AcDbEntity
8
0
100
AcDbLine
10
9.9912666007067141
20
-0.041439679584563405
30
0
11
10.413656108000415
21
-1.2591592940903318
31
0
0
LINE
5
427
100
AcDbEntity
8
0
100
AcDbLine
10
10.41365610800041
20
-1.2591592940903318
30
0
11
10.41365610800041
21
-1.2921263250923765
31
0
0
LINE
5
428
100
AcDbEntity
8
0
100
AcDbLine
10
10.41365610800041
20
-1.2921263250923765
30
0
11
9.7707985564257029
21
-1.2921263250923758
31
0
0
LINE
5
429
100
AcDbEntity
8
0
100
AcDbLine
10
9.7707985564257029
20
-1.2921263250923758
30
0
11
9.4164036437059782
21
-0.19391193719869887
31
0
0
LINE
5
430
100
AcDbEntity
8
0
100
AcDbLine
10
9.0125559493090091
20
0.30677482751840374
30
0
11
9.4617317839647708
21
0.30265391139024478
31
0
0
SPLINE
5
431
100
AcDbEntity
8
0
100
AcDbSpline
70
0
71
2
72
6
73
3
74
0
42
0.000000001
43
0.0000000001
44
0.0000000001
40
0
40
0
40
0
40
1
40
1
40
1
10
9.4617317839647708
20
0.30265391139024461
30
0
10
9.572996966459888
20
0.30471429494851793
30
0
10
9.6708677931810794
20
0.33459067610734666
30
0
0
SPLINE
5
432
100
AcDbEntity
8
0
100
AcDbSpline
70
0
71
2
72
6
73
3
74
0
42
0.000000001
43
0.0000000001
44
0.0000000001
40
0
40
0
40
0
40
1
40
1
40
1
10
9.6708677931810794
20
0.33459067610734666
30
0
10
9.7687386199022708
20
0.36446705726617512
30
0
10
9.8460053130175051
20
0.4231897023105019
30
0
0
SPLINE
5
433
100
AcDbEntity
8
0
100
AcDbSpline
70
0
71
2
72
6
73
3
74
0
42
0.000000001
43
0.0000000001
44
0.0000000001
40
0
40
0
40
0
40
1
40
1
40
1
10
9.8460053130175051
20
0.4231897023105019
30
0
10
9.9232720061327395
20
0.48191219834321675
30
0
10
9.9747823401476321
20
0.56845069197648701
30
0
0
SPLINE
5
434
100
AcDbEntity
8
0
100
AcDbSpline
70
0
71
2
72
6
73
3
74
0
42
0.000000001
43
0.0000000001
44
0.0000000001
40
0
40
0
40
0
40
1
40
1
40
1
10
9.9747823401476321
20
0.56845069197648701
30
0
10
10.026292674162525
20
0.65498903659814534
30
0
10
10.042776934721607
20
0.77037364510530137
30
0
0
SPLINE
5
435
100
AcDbEntity
8
0
100
AcDbSpline
70
0
71
2
72
6
73
3
74
0
42
0.000000001
43
0.0000000001
44
0.0000000001
40
0
40
0
40
0
40
1
40
1
40
1
10
10.042776934721607
20
0.77037364510530137
30
0
10
10.071623198607105
20
0.97023636368745469
30
0
10
9.9789022131945071
20
1.0835605886363382
30
0
0
SPLINE
5
436
100
AcDbEntity
8
0
100
AcDbSpline
70
0
71
2
72
6
73
3
74
0
42
0.000000001
43
0.0000000001
44
0.0000000001
40
0
40
0
40
0
40
1
40
1
40
1
10
9.9789022131945071
20
1.0835605886363382
30
0
10
9.8861836119677005
20
1.1968846645736093
30
0
10
9.6842597647692141
20
1.2051264968299267
30
0
0
LINE
5
437
100
AcDbEntity
8
0
100
AcDbLine
10
9.6842597647692141
20
1.2051264968299267
30
0
11
9.1691492720629153
21
1.2071868803882004
31
0
0
LINE
5
438
100
AcDbEntity
8
0
100
AcDbLine
10
9.1691492720629153
20
1.2071868803882002
30
0
11
9.0125559493090073
21
0.30677482751840357
31
0
0
SPLINE
5
439
100
AcDbEntity
8
0
100
AcDbSpline
70
0
71
2
72
6
73
3
74
0
42
0.000000001
43
0.0000000001
44
0.0000000001
40
0
40
0
40
0
40
1
40
1
40
1
10
13.160221449949873
20
-0.91300531955725295
30
0
10
13.0633805914904
20
-1.0366319093323384
30
0
10
12.923269145109785
20
-1.1190493378258382
30
0
0
SPLINE
5
440
100
AcDbEntity
8
0
100
AcDbSpline
70
0
71
2
72
6
73
3
74
0
42
0.000000001
43
0.0000000001
44
0.0000000001
40
0
40
0
40
0
40
1
40
1
40
1
10
12.923269145109785
20
-1.1190493378258382
30
0
10
12.783160082914961
20
-1.2014670643425611
30
0
10
12.624506823637617
20
-1.2488572272873548
30
0
0
SPLINE
5
441
100
AcDbEntity
8
0
100
AcDbSpline
70
0
71
2
72
6
73
3
74
0
42
0.000000001
43
0.0000000001
44
0.0000000001
40
0
40
0
40
0
40
1
40
1
40
1
10
12.624506823637617
20
-1.2488572272873548
30
0
10
12.465851180174482
20
-1.2962470922089246
30
0
10
12.301018111326826
20
-1.3147912892914442
30
0
0
SPLINE
5
442
100
AcDbEntity
8
0
100
AcDbSpline
70
0
71
2
72
6
73
3
74
0
42
0.000000001
43
0.0000000001
44
0.0000000001
40
0
40
0
40
0
40
1
40
1
40
1
10
12.301018111326826
20
-1.3147912892914442
30
0
10
12.136182658293379
20
-1.3333351883507394
30
0
10
11.989891402342451
20
-1.3312746557808541
30
0
0
SPLINE
5
443
100
AcDbEntity
8
0
100
AcDbSpline
70
0
71
2
72
6
73
3
74
0
42
0.000000001
43
0.0000000001
44
0.0000000001
40
0
40
0
40
0
40
1
40
1
40
1
10
11.989891402342451
20
-1.3312746557808541
30
0
10
11.78384768209709
20
-1.3292141232109689
30
0
10
11.620042197325361
20
-1.2725521597481393
30
0
0
SPLINE
5
444
100
AcDbEntity
8
0
100
AcDbSpline
70
0
71
2
72
6
73
3
74
0
42
0.000000001
43
0.0000000001
44
0.0000000001
40
0
40
0
40
0
40
1
40
1
40
1
10
11.620042197325361
20
-1.2725521597481393
30
0
10
11.456236712553633
20
-1.2158901962853093
30
0
10
11.331579558470381
20
-1.1159588369942326
30
0
0
SPLINE
5
445
100
AcDbEntity
8
0
100
AcDbSpline
70
0
71
2
72
6
73
3
74
0
42
0.000000001
43
0.0000000001
44
0.0000000001
40
0
40
0
40
0
40
1
40
1
40
1
10
11.331579558470381
20
-1.1159588369942326
30
0
10
11.20692478857292
20
-1.0160274777031559
30
0
10
11.122445933439863
20
-0.88106855484014923
30
0
0
SPLINE
5
446
100
AcDbEntity
8
0
100
AcDbSpline
70
0
71
2
72
6
73
3
74
0
42
0.000000001
43
0.0000000001
44
0.0000000001
40
0
40
0
40
0
40
1
40
1
40
1
10
11.122445933439863
20
-0.88106855484014923
30
0
10
11.037967078306806
20
-0.74610963197714264
30
0
10
10.98954664907707
20
-0.58539554210668976
30
0
0
SPLINE
5
447
100
AcDbEntity
8
0
100
AcDbSpline
70
0
71
2
72
6
73
3
74
0
42
0.000000001
43
0.0000000001
44
0.0000000001
40
0
40
0
40
0
40
1
40
1
40
1
10
10.98954664907707
20
-0.58539554210668976
30
0
10
10.941126219847339
20
-0.424681154213013
30
0
10
10.929794184782642
20
-0.24645313354498322
30
0
0
SPLINE
5
448
100
AcDbEntity
8
0
100
AcDbSpline
70
0
71
2
72
6
73
3
74
0
42
0.000000001
43
0.0000000001
44
0.0000000001
40
0
40
0
40
0
40
1
40
1
40
1
10
10.929794184782642
20
-0.24645313354498322
30
0
10
10.918462149717945
20
-0.068225112876953431
30
0
10
10.941126219847339
20
0.11721417573922699
30
0
0
LINE
5
449
100
AcDbEntity
8
0
100
AcDbLine
10
10.941126219847339
20
0.11721417573922699
30
0
11
10.965852610685962
21
0.29441222814553797
31
0
0
SPLINE
5
450
100
AcDbEntity
8
0
100
AcDbSpline
70
0
71
2
72
6
73
3
74
0
42
0.000000001
43
0.0000000001
44
0.0000000001
40
0
40
0
40
0
40
1
40
1
40
1
10
10.965852610685962
20
0.2944122281455383
30
0
10
10.992638938048023
20
0.4880934980296478
30
0
10
11.050331465819019
20
0.6714727011107785
30
0
0
SPLINE
5
451
100
AcDbEntity
8
0
100
AcDbSpline
70
0
71
2
72
6
73
3
74
0
42
0.000000001
43
0.0000000001
44
0.0000000001
40
0
40
0
40
0
40
1
40
1
40
1
10
11.050331465819019
20
0.6714727011107785
30
0
10
11.108021609404224
20
0.85485175518029755
30
0
10
11.196620337584156
20
1.0176265266322475
30
0
0
SPLINE
5
452
100
AcDbEntity
8
0
100
AcDbSpline
70
0
71
2
72
6
73
3
74
0
42
0.000000001
43
0.0000000001
44
0.0000000001
40
0
40
0
40
0
40
1
40
1
40
1
10
11.196620337584156
20
1.0176265266322475
30
0
10
11.285221449949878
20
1.1804012980841976
30
0
10
11.403696410277027
20
1.3163901892089227
30
0
0
SPLINE
5
453
100
AcDbEntity
8
0
100
AcDbSpline
70
0
71
2
72
6
73
3
74
0
42
0.000000001
43
0.0000000001
44
0.0000000001
40
0
40
0
40
0
40
1
40
1
40
1
10
11.403696410277027
20
1.3163901892089227
30
0
10
11.522171370604175
20
1.4523793783568719
30
0
10
11.672582499601978
20
1.5502502050780631
30
0
0
SPLINE
5
454
100
AcDbEntity
8
0
100
AcDbSpline
70
0
71
2
72
6
73
3
74
0
42
0.000000001
43
0.0000000001
44
0.0000000001
40
0
40
0
40
0
40
1
40
1
40
1
10
11.672582499601978
20
1.5502502050780631
30
0
10
11.822996012785572
20
1.6481210317992545
30
0
10
12.00431334219231
20
1.7006622281455375
30
0
0
SPLINE
5
455
100
AcDbEntity
8
0
100
AcDbSpline
70
0
71
2
72
6
73
3
74
0
42
0.000000001
43
0.0000000001
44
0.0000000001
40
0
40
0
40
0
40
1
40
1
40
1
10
12.00431334219231
20
1.7006622281455375
30
0
10
12.185633055784839
20
1.7532034244918202
30
0
10
12.397858969786304
20
1.7490826573752734
30
0
0
SPLINE
5
456
100
AcDbEntity
8
0
100
AcDbSpline
70
0
71
2
72
6
73
3
74
0
42
0.000000001
43
0.0000000001
44
0.0000000001
40
0
40
0
40
0
40
1
40
1
40
1
10
12.397858969786304
20
1.7490826573752734
30
0
10
12.638928763487476
20
1.7449618902587267
30
0
10
12.82436835012688
20
1.675937029399809
30
0
0
SPLINE
5
457
100
AcDbEntity
8
0
100
AcDbSpline
70
0
71
2
72
6
73
3
74
0
42
0.000000001
43
0.0000000001
44
0.0000000001
40
0
40
0
40
0
40
1
40
1
40
1
10
12.82436835012688
20
1.675937029399809
30
0
10
13.009807936766284
20
1.6069121685408916
30
0
10
13.13961493215813
20
1.4791651096724834
30
0
0
SPLINE
5
458
100
AcDbEntity
8
0
100
AcDbSpline
70
0
71
2
72
6
73
3
74
0
42
0.000000001
43
0.0000000001
44
0.0000000001
40
0
40
0
40
0
40
1
40
1
40
1
10
13.13961493215813
20
1.4791651096724834
30
0
10
13.269424311735767
20
1.3514177527808513
30
0
10
13.343598715880054
20
1.1680386987113323
30
0
0
SPLINE
5
459
100
AcDbEntity
8
0
100
AcDbSpline
70
0
71
2
72
6
73
3
74
0
42
0.000000001
43
0.0000000001
44
0.0000000001
40
0
40
0
40
0
40
1
40
1
40
1
10
13.343598715880054
20
1.1680386987113323
30
0
10
13.417775504210132
20
0.98465949563020105
30
0
10
13.436319701292652
20
0.74976936248772974
30
0
0
LINE
5
460
100
AcDbEntity
8
0
100
AcDbLine
10
13.436319701292652
20
0.74976936248772974
30
0
11
12.855274550535816
21
0.75182974604600339
31
0
0
SPLINE
5
461
100
AcDbEntity
8
0
100
AcDbSpline
70
0
71
2
72
6
73
3
74
0
42
0.000000001
43
0.0000000001
44
0.0000000001
40
0
40
0
40
0
40
1
40
1
40
1
10
12.855274550535816
20
0.7518297460460035
30
0
10
12.844972483732837
20
0.86309358743661324
30
0
10
12.816126219847339
20
0.95375284818643014
30
0
0
SPLINE
5
462
100
AcDbEntity
8
0
100
AcDbSpline
70
0
71
2
72
6
73
3
74
0
42
0.000000001
43
0.0000000001
44
0.0000000001
40
0
40
0
40
0
40
1
40
1
40
1
10
12.816126219847339
20
0.95375284818643014
30
0
10
12.787279955961841
20
1.044412257947859
30
0
10
12.732679717161792
20
1.1093160536670057
30
0
0
SPLINE
5
463
100
AcDbEntity
8
0
100
AcDbSpline
70
0
71
2
72
6
73
3
74
0
42
0.000000001
43
0.0000000001
44
0.0000000001
40
0
40
0
40
0
40
1
40
1
40
1
10
12.732679717161792
20
1.1093160536670057
30
0
10
12.678077094175952
20
1.1742199983977648
30
0
10
12.593600623228687
20
1.2102775302314135
30
0
0
SPLINE
5
464
100
AcDbEntity
8
0
100
AcDbSpline
70
0
71
2
72
6
73
3
74
0
42
0.000000001
43
0.0000000001
44
0.0000000001
40
0
40
0
40
0
40
1
40
1
40
1
10
12.593600623228687
20
1.2102775302314135
30
0
10
12.50912176809563
20
1.246335360088286
30
0
10
12.389616839506763
20
1.2504561272048327
30
0
0
SPLINE
5
465
100
AcDbEntity
8
0
100
AcDbSpline
70
0
71
2
72
6
73
3
74
0
42
0.000000001
43
0.0000000001
44
0.0000000001
40
0
40
0
40
0
40
1
40
1
40
1
10
12.389616839506763
20
1.2504561272048327
30
0
10
12.257747523405689
20
1.2545771923446034
30
0
10
12.150604598143238
20
1.2174890962027882
30
0
0
SPLINE
5
466
100
AcDbEntity
8
0
100
AcDbSpline
70
0
71
2
72
6
73
3
74
0
42
0.000000001
43
0.0000000001
44
0.0000000001
40
0
40
0
40
0
40
1
40
1
40
1
10
12.150604598143238
20
1.2174890962027882
30
0
10
12.043461672880786
20
1.1804012980841969
30
0
10
11.958985201933521
20
1.1113765862368918
30
0
0
SPLINE
5
467
100
AcDbEntity
8
0
100
AcDbSpline
70
0
71
2
72
6
73
3
74
0
42
0.000000001
43
0.0000000001
44
0.0000000001
40
0
40
0
40
0
40
1
40
1
40
1
10
11.958985201933521
20
1.1113765862368918
30
0
10
11.874506346800464
20
1.0423518743895865
30
0
10
11.810631625273365
20
0.94860181478494177
30
0
0
SPLINE
5
468
100
AcDbEntity
8
0
100
AcDbSpline
70
0
71
2
72
6
73
3
74
0
42
0.000000001
43
0.0000000001
44
0.0000000001
40
0
40
0
40
0
40
1
40
1
40
1
10
11.810631625273365
20
0.94860181478494177
30
0
10
11.746759287932056
20
0.85485175518029699
30
0
10
11.700398795225757
20
0.74667871264451535
30
0
0
SPLINE
5
469
100
AcDbEntity
8
0
100
AcDbSpline
70
0
71
2
72
6
73
3
74
0
42
0.000000001
43
0.0000000001
44
0.0000000001
40
0
40
0
40
0
40
1
40
1
40
1
10
11.700398795225757
20
0.74667871264451535
30
0
10
11.654038302519458
20
0.63850567010873349
30
0
10
11.62519203863396
20
0.52415117887490781
30
0
0
SPLINE
5
470
100
AcDbEntity
8
0
100
AcDbSpline
70
0
71
2
72
6
73
3
74
0
42
0.000000001
43
0.0000000001
44
0.0000000001
40
0
40
0
40
0
40
1
40
1
40
1
10
11.62519203863396
20
0.52415117887490781
30
0
10
11.596345774748462
20
0.40979683665269412
30
0
10
11.579863898375171
20
0.29853314427369632
30
0
0
LINE
5
471
100
AcDbEntity
8
0
100
AcDbLine
10
11.579863898375171
20
0.29853314427369632
30
0
11
11.555137507536548
21
0.11515394119256536
31
0
0
SPLINE
5
472
100
AcDbEntity
8
0
100
AcDbSpline
70
0
71
2
72
6
73
3
74
0
42
0.000000001
43
0.0000000001
44
0.0000000001
40
0
40
0
40
0
40
1
40
1
40
1
10
11.555137507536548
20
0.11515394119256506
30
0
10
11.542775504210132
20
0.016252848186431024
30
0
10
11.537623278715747
20
-0.091920045337738898
30
0
0
SPLINE
5
473
100
AcDbEntity
8
0
100
AcDbSpline
70
0
71
2
72
6
73
3
74
0
42
0.000000001
43
0.0000000001
44
0.0000000001
40
0
40
0
40
0
40
1
40
1
40
1
10
11.537623278715747
20
-0.091920045337738898
30
0
10
11.532473437407154
20
-0.20009323688513214
30
0
10
11.542775504210132
20
-0.30517562957769861
30
0
0
SPLINE
5
474
100
AcDbEntity
8
0
100
AcDbSpline
70
0
71
2
72
6
73
3
74
0
42
0.000000001
43
0.0000000001
44
0.0000000001
40
0
40
0
40
0
40
1
40
1
40
1
10
11.542775504210132
20
-0.30517562957769861
30
0
10
11.553077571013111
20
-0.41025802227026453
30
0
10
11.583983771422041
20
-0.50503834815985194
30
0
0
SPLINE
5
475
100
AcDbEntity
8
0
100
AcDbSpline
70
0
71
2
72
6
73
3
74
0
42
0.000000001
43
0.0000000001
44
0.0000000001
40
0
40
0
40
0
40
1
40
1
40
1
10
11.583983771422041
20
-0.50503834815985194
30
0
10
11.614889971830976
20
-0.59981867404943934
30
0
10
11.672582499601972
20
-0.67193403573996058
30
0
0
SPLINE
5
476
100
AcDbEntity
8
0
100
AcDbSpline
70
0
71
2
72
6
73
3
74
0
42
0.000000001
43
0.0000000001
44
0.0000000001
40
0
40
0
40
0
40
1
40
1
40
1
10
11.672582499601972
20
-0.67193403573996058
30
0
10
11.730275027372969
20
-0.74404939743048182
30
0
10
11.819903723814619
20
-0.78834876152044764
30
0
0
SPLINE
5
477
100
AcDbEntity
8
0
100
AcDbSpline
70
0
71
2
72
6
73
3
74
0
42
0.000000001
43
0.0000000001
44
0.0000000001
40
0
40
0
40
0
40
1
40
1
40
1
10
11.819903723814619
20
-0.78834876152044764
30
0
10
11.90953480444206
20
-0.83264842363363734
30
0
10
12.039341799833906
20
-0.83470865818029871
30
0
0
SPLINE
5
478
100
AcDbEntity
8
0
100
AcDbSpline
70
0
71
2
72
6
73
3
74
0
42
0.000000001
43
0.0000000001
44
0.0000000001
40
0
40
0
40
0
40
1
40
1
40
1
10
12.039341799833906
20
-0.83470865818029871
30
0
10
12.181510798552168
20
-0.83882942529684534
30
0
10
12.313380114653242
20
-0.8058626923180251
30
0
0
SPLINE
5
479
100
AcDbEntity
8
0
100
AcDbSpline
70
0
71
2
72
6
73
3
74
0
42
0.000000001
43
0.0000000001
44
0.0000000001
40
0
40
0
40
0
40
1
40
1
40
1
10
12.313380114653242
20
-0.8058626923180251
30
0
10
12.445247046568525
20
-0.77289536329275654
30
0
10
12.562692038633955
20
-0.68841740222937153
30
0
0
LINE
5
480
100
AcDbEntity
8
0
100
AcDbLine
10
12.562692038633955
20
-0.68841740222937153
30
0
11
12.663655154326094
21
-0.17124727102285914
31
0
0
LINE
5
481
100
AcDbEntity
8
0
100
AcDbLine
10
12.663655154326099
20
-0.17124727102285908
30
0
11
12.115578524687427
21
-0.17124727102285864
31
0
0
LINE
5
482
100
AcDbEntity
8
0
100
AcDbLine
10
12.115578524687427
20
-0.17124727102285853
30
0
11
12.195935122587818
21
0.28411001233094696
31
0
0
LINE
5
483
100
AcDbEntity
8
0
100
AcDbLine
10
12.195935122587818
20
0.28411001233094674
30
0
11
13.341538779356616
21
0.28411001233094579
31
0
0
LINE
5
484
100
AcDbEntity
8
0
100
AcDbLine
10
13.341538779356616
20
0.2841100123309459
30
0
11
13.160221449949878
21
-0.91300531955725284
31
0
0
LINE
5
485
100
AcDbEntity
8
0
100
AcDbLine
10
13.572308890440596
20
-1.2921263250923793
30
0
11
14.09359919271721
21
1.7078737941169098
31
0
0
LINE
5
486
100
AcDbEntity
8
0
100
AcDbLine
10
14.093599192717212
20
1.7078737941169102
30
0
11
15.076429717161792
21
1.7058132615470243
31
0
0
SPLINE
5
487
100
AcDbEntity
8
0
100
AcDbSpline
70
0
71
2
72
6
73
3
74
0
42
0.000000001
43
0.0000000001
44
0.0000000001
40
0
40
0
40
0
40
1
40
1
40
1
10
15.076429717161792
20
1.7058132615470241
30
0
10
15.2680514975573
20
1.7016924944304774
30
0
10
15.450398795225757
20
1.6604836311721152
30
0
0
SPLINE
5
488
100
AcDbEntity
8
0
100
AcDbSpline
70
0
71
2
72
6
73
3
74
0
42
0.000000001
43
0.0000000001
44
0.0000000001
40
0
40
0
40
0
40
1
40
1
40
1
10
15.450398795225757
20
1.6604836311721152
30
0
10
15.632748477080005
20
1.619275065936977
30
0
10
15.770797602751392
20
1.5244947400473896
30
0
0
SPLINE
5
489
100
AcDbEntity
8
0
100
AcDbSpline
70
0
71
2
72
6
73
3
74
0
42
0.000000001
43
0.0000000001
44
0.0000000001
40
0
40
0
40
0
40
1
40
1
40
1
10
15.770797602751392
20
1.5244947400473896
30
0
10
15.908846728422779
20
1.4297144141578022
30
0
10
15.986113421538013
20
1.2772418585204426
30
0
0
SPLINE
5
490
100
AcDbEntity
8
0
100
AcDbSpline
70
0
71
2
72
6
73
3
74
0
42
0.000000001
43
0.0000000001
44
0.0000000001
40
0
40
0
40
0
40
1
40
1
40
1
10
15.986113421538013
20
1.2772418585204426
30
0
10
16.063380114653249
20
1.1247696009063066
30
0
10
16.048958174803396
20
0.90224206713669908
30
0
0
SPLINE
5
491
100
AcDbEntity
8
0
100
AcDbSpline
70
0
71
2
72
6
73
3
74
0
42
0.000000001
43
0.0000000001
44
0.0000000001
40
0
40
0
40
0
40
1
40
1
40
1
10
16.048958174803396
20
0.90224206713669908
30
0
10
16.040716044523855
20
0.77655524281495225
30
0
10
15.998475424864429
20
0.6745634999656025
30
0
0
SPLINE
5
492
100
AcDbEntity
8
0
100
AcDbSpline
70
0
71
2
72
6
73
3
74
0
42
0.000000001
43
0.0000000001
44
0.0000000001
40
0
40
0
40
0
40
1
40
1
40
1
10
15.998475424864429
20
0.6745634999656025
30
0
10
15.956237189390796
20
0.57257175711625252
30
0
10
15.888242594816822
20
0.49118429688447152
30
0
0
SPLINE
5
493
100
AcDbEntity
8
0
100
AcDbSpline
70
0
71
2
72
6
73
3
74
0
42
0.000000001
43
0.0000000001
44
0.0000000001
40
0
40
0
40
0
40
1
40
1
40
1
10
15.888242594816822
20
0.49118429688447152
30
0
10
15.820248000242847
20
0.40979698566430245
30
0
10
15.72752939901604
20
0.34695357350342904
30
0
0
SPLINE
5
494
100
AcDbEntity
8
0
100
AcDbSpline
70
0
71
2
72
6
73
3
74
0
42
0.000000001
43
0.0000000001
44
0.0000000001
40
0
40
0
40
0
40
1
40
1
40
1
10
15.72752939901604
20
0.34695357350342904
30
0
10
15.634808413603443
20
0.2841101613425559
30
0
10
15.523545615294116
20
0.2367199983977622
30
0
0
SPLINE
5
495
100
AcDbEntity
8
0
100
AcDbSpline
70
0
71
2
72
6
73
3
74
0
42
0.000000001
43
0.0000000001
44
0.0000000001
40
0
40
0
40
0
40
1
40
1
40
1
10
15.523545615294116
20
0.2367199983977622
30
0
10
15.624506346800464
20
0.20169243482583199
30
0
10
15.695593230345386
20
0.13678863910668526
30
0
0
SPLINE
5
496
100
AcDbEntity
8
0
100
AcDbSpline
70
0
71
2
72
6
73
3
74
0
42
0.000000001
43
0.0000000001
44
0.0000000001
40
0
40
0
40
0
40
1
40
1
40
1
10
15.695593230345386
20
0.13678863910668526
30
0
10
15.766677729704517
20
0.071884843387538533
30
0
10
15.812005869963306
20
-0.012593415699070354
30
0
0
SPLINE
5
497
100
AcDbEntity
8
0
100
AcDbSpline
70
0
71
2
72
6
73
3
74
0
42
0.000000001
43
0.0000000001
44
0.0000000001
40
0
40
0
40
0
40
1
40
1
40
1
10
15.812005869963306
20
-0.012593415699070354
30
0
10
15.857336394407886
20
-0.097071376762455364
30
0
10
15.874850623228687
20
-0.1959724697685894
30
0
0
SPLINE
5
498
100
AcDbEntity
8
0
100
AcDbSpline
70
0
71
2
72
6
73
3
74
0
42
0.000000001
43
0.0000000001
44
0.0000000001
40
0
40
0
40
0
40
1
40
1
40
1
10
15.874850623228687
20
-0.1959724697685894
30
0
10
15.892364852049488
20
-0.29487356277472343
30
0
10
15.886182658293384
20
-0.39583518835074272
30
0
0
SPLINE
5
499
100
AcDbEntity
8
0
100
AcDbSpline
70
0
71
2
72
6
73
3
74
0
42
0.000000001
43
0.0000000001
44
0.0000000001
40
0
40
0
40
0
40
1
40
1
40
1
10
15.886182658293384
20
-0.39583518835074272
30
0
10
15.869698397734297
20
-0.63690647216803398
30
0
10
15.769767634489668
20
-0.80792292686468925
30
0
0
SPLINE
5
500
100
AcDbEntity
8
0
100
AcDbSpline
70
0
71
2
72
6
73
3
74
0
42
0.000000001
43
0.0000000001
44
0.0000000001
40
0
40
0
40
0
40
1
40
1
40
1
10
15.769767634489668
20
-0.80792292686468925
30
0
10
15.669836871245039
20
-0.97893938156134452
30
0
10
15.511183611967695
20
-1.0871125731087377
30
0
0
SPLINE
5
501
100
AcDbEntity
8
0
100
AcDbSpline
70
0
71
2
72
6
73
3
74
0
42
0.000000001
43
0.0000000001
44
0.0000000001
40
0
40
0
40
0
40
1
40
1
40
1
10
15.511183611967695
20
-1.0871125731087377
30
0
10
15.35252796850456
20
-1.1952857646561315
30
0
10
15.149576537230146
20
-1.2447361621475865
30
0
0
SPLINE
5
502
100
AcDbEntity
8
0
100
AcDbSpline
70
0
71
2
72
6
73
3
74
0
42
0.000000001
43
0.0000000001
44
0.0000000001
40
0
40
0
40
0
40
1
40
1
40
1
10
15.149576537230146
20
-1.2447361621475865
30
0
10
14.946622721769941
20
-1.2941868576622655
30
0
10
14.726154677488935
20
-1.2921263250923798
30
0
0
LINE
5
503
100
AcDbEntity
8
0
100
AcDbLine
10
14.726154677488935
20
-1.2921263250923798
30
0
11
13.572308890440596
21
-1.2921263250923789
31
0
0
LINE
5
504
100
AcDbEntity
8
0
100
AcDbLine
10
14.404725901701587
20
0.014192315616543549
30
0
11
14.262556902983325
21
-0.79556032749182426
31
0
0
LINE
5
505
100
AcDbEntity
8
0
100
AcDbLine
10
14.26255690298332
20
-0.79556032749182437
30
0
11
14.738516680815351
21
-0.79762086006171007
31
0
0
SPLINE
5
506
100
AcDbEntity
8
0
100
AcDbSpline
70
0
71
2
72
6
73
3
74
0
42
0.000000001
43
0.0000000001
44
0.0000000001
40
0
40
0
40
0
40
1
40
1
40
1
10
14.738516680815351
20
-0.79762086006170962
30
0
10
14.837419859984053
20
-0.79762086006170962
30
0
10
14.930138461210859
20
-0.77289566131598264
30
0
0
SPLINE
5
507
100
AcDbEntity
8
0
100
AcDbSpline
70
0
71
2
72
6
73
3
74
0
42
0.000000001
43
0.0000000001
44
0.0000000001
40
0
40
0
40
0
40
1
40
1
40
1
10
14.930138461210859
20
-0.77289566131598264
30
0
10
15.022859446623457
20
-0.74817016454703122
30
0
10
15.097033850767744
20
-0.69768950077063352
30
0
0
SPLINE
5
508
100
AcDbEntity
8
0
100
AcDbSpline
70
0
71
2
72
6
73
3
74
0
42
0.000000001
43
0.0000000001
44
0.0000000001
40
0
40
0
40
0
40
1
40
1
40
1
10
15.097033850767744
20
-0.69768950077063352
30
0
10
15.171210639097822
20
-0.64720883699423581
30
0
10
15.222720973112715
20
-0.57097241016394407
30
0
0
SPLINE
5
509
100
AcDbEntity
8
0
100
AcDbSpline
70
0
71
2
72
6
73
3
74
0
42
0.000000001
43
0.0000000001
44
0.0000000001
40
0
40
0
40
0
40
1
40
1
40
1
10
15.222720973112715
20
-0.57097241016394407
30
0
10
15.274231307127607
20
-0.49473598333365232
30
0
10
15.290715567686695
20
-0.3896535906410864
30
0
0
SPLINE
5
510
100
AcDbEntity
8
0
100
AcDbSpline
70
0
71
2
72
6
73
3
74
0
42
0.000000001
43
0.0000000001
44
0.0000000001
40
0
40
0
40
0
40
1
40
1
40
1
10
15.290715567686695
20
-0.3896535906410864
30
0
10
15.319561831572193
20
-0.2042140040016821
30
0
10
15.240235201933521
20
-0.10016187759405881
30
0
0
SPLINE
5
511
100
AcDbEntity
8
0
100
AcDbSpline
70
0
71
2
72
6
73
3
74
0
42
0.000000001
43
0.0000000001
44
0.0000000001
40
0
40
0
40
0
40
1
40
1
40
1
10
15.240235201933521
20
-0.10016187759405881
30
0
10
15.160908572294849
20
0.0038902488135644786
30
0
10
14.973409049132007
20
0.012132081069881617
30
0
0
LINE
5
512
100
AcDbEntity
8
0
100
AcDbLine
10
14.973409049132007
20
0.012132081069881617
30
0
11
14.404725901701587
21
0.01419231561654347
31
0
0
LINE
5
513
100
AcDbEntity
8
0
100
AcDbLine
10
14.478902690031665
20
0.45100569991105344
30
0
11
14.88893019399895
21
0.44688493279450647
31
0
0
SPLINE
5
514
100
AcDbEntity
8
0
100
AcDbSpline
70
0
71
2
72
6
73
3
74
0
42
0.000000001
43
0.0000000001
44
0.0000000001
40
0
40
0
40
0
40
1
40
1
40
1
10
14.88893019399895
20
0.44688493279450653
30
0
10
14.985771052458423
20
0.44894531635277984
30
0
10
15.077459685423511
20
0.47161013154023379
30
0
0
SPLINE
5
515
100
AcDbEntity
8
0
100
AcDbSpline
70
0
71
2
72
6
73
3
74
0
42
0.000000001
43
0.0000000001
44
0.0000000001
40
0
40
0
40
0
40
1
40
1
40
1
10
15.077459685423511
20
0.47161013154023379
30
0
10
15.16915070257439
20
0.49427494672768801
30
0
10
15.243325106718677
20
0.54063484338753909
30
0
0
SPLINE
5
516
100
AcDbEntity
8
0
100
AcDbSpline
70
0
71
2
72
6
73
3
74
0
42
0.000000001
43
0.0000000001
44
0.0000000001
40
0
40
0
40
0
40
1
40
1
40
1
10
15.243325106718677
20
0.54063484338753909
30
0
10
15.317501895048755
20
0.58699474004739016
30
0
10
15.369012229063648
20
0.66117063430779632
30
0
0
SPLINE
5
517
100
AcDbEntity
8
0
100
AcDbSpline
70
0
71
2
72
6
73
3
74
0
42
0.000000001
43
0.0000000001
44
0.0000000001
40
0
40
0
40
0
40
1
40
1
40
1
10
15.369012229063648
20
0.66117063430779632
30
0
10
15.42052256307854
20
0.73534637955659088
30
0
10
15.437006823637622
20
0.84042892126076874
30
0
0
SPLINE
5
518
100
AcDbEntity
8
0
100
AcDbSpline
70
0
71
2
72
6
73
3
74
0
42
0.000000001
43
0.0000000001
44
0.0000000001
40
0
40
0
40
0
40
1
40
1
40
1
10
15.437006823637622
20
0.84042892126076874
30
0
10
15.451428763487476
20
0.94139039782517608
30
0
10
15.430824629881519
20
1.0104151096724814
30
0
0
SPLINE
5
519
100
AcDbEntity
8
0
100
AcDbSpline
70
0
71
2
72
6
73
3
74
0
42
0.000000001
43
0.0000000001
44
0.0000000001
40
0
40
0
40
0
40
1
40
1
40
1
10
15.430824629881519
20
1.0104151096724814
30
0
10
15.410220496275562
20
1.0794398215197867
30
0
10
15.358710162260669
20
1.1216788020514796
30
0
0
SPLINE
5
520
100
AcDbEntity
8
0
100
AcDbSpline
70
0
71
2
72
6
73
3
74
0
42
0.000000001
43
0.0000000001
44
0.0000000001
40
0
40
0
40
0
40
1
40
1
40
1
10
15.358710162260669
20
1.1216788020514796
30
0
10
15.307199828245777
20
1.1639179315947841
30
0
10
15.23199307165398
20
1.1834920969390224
30
0
0
SPLINE
5
521
100
AcDbEntity
8
0
100
AcDbSpline
70
0
71
2
72
6
73
3
74
0
42
0.000000001
43
0.0000000001
44
0.0000000001
40
0
40
0
40
0
40
1
40
1
40
1
10
15.23199307165398
20
1.1834920969390224
30
0
10
15.156786315062183
20
1.2030662622832606
30
0
10
15.064067713835376
20
1.2051266458415339
30
0
0
LINE
5
522
100
AcDbEntity
8
0
100
AcDbLine
10
15.064067713835376
20
1.2051266458415339
30
0
11
14.610769621946949
21
1.2071871784114194
31
0
0
LINE
5
523
100
AcDbEntity
8
0
100
AcDbLine
10
14.610769621946949
20
1.2071871784114196
30
0
11
14.478902690031665
21
0.45100569991105355
31
0
0
ENDSEC
0
SECTION
2
OBJECTS
0
DICTIONARY
5
C
100
AcDbDictionary
3
ACAD_GROUP
350
D
3
ACAD_MLINESTYLE
350
17
0
DICTIONARY
5
D
100
AcDbDictionary
0
DICTIONARY
5
1A
330
C
100
AcDbDictionary
0
DICTIONARY
5
17
100
AcDbDictionary
0
ENDSEC
0
EOF
